<svg width="33" height="33" viewBox="0 0 33 33" fill="none" xmlns="http://www.w3.org/2000/svg">
<path d="M13.75 17.875H4.125C3.76033 17.875 3.41059 18.0199 3.15273 18.2777C2.89487 18.5356 2.75 18.8853 2.75 19.25V28.875C2.75 29.2397 2.89487 29.5894 3.15273 29.8473C3.41059 30.1051 3.76033 30.25 4.125 30.25H13.75C14.1147 30.25 14.4644 30.1051 14.7223 29.8473C14.9801 29.5894 15.125 29.2397 15.125 28.875V19.25C15.125 18.8853 14.9801 18.5356 14.7223 18.2777C14.4644 18.0199 14.1147 17.875 13.75 17.875ZM12.375 27.5H5.5V20.625H12.375V27.5ZM28.875 2.75H19.25C18.8853 2.75 18.5356 2.89487 18.2777 3.15273C18.0199 3.41059 17.875 3.76033 17.875 4.125V13.75C17.875 14.1147 18.0199 14.4644 18.2777 14.7223C18.5356 14.9801 18.8853 15.125 19.25 15.125H28.875C29.2397 15.125 29.5894 14.9801 29.8473 14.7223C30.1051 14.4644 30.25 14.1147 30.25 13.75V4.125C30.25 3.76033 30.1051 3.41059 29.8473 3.15273C29.5894 2.89487 29.2397 2.75 28.875 2.75ZM27.5 12.375H20.625V5.5H27.5V12.375ZM28.875 17.875H19.25C18.8853 17.875 18.5356 18.0199 18.2777 18.2777C18.0199 18.5356 17.875 18.8853 17.875 19.25V28.875C17.875 29.2397 18.0199 29.5894 18.2777 29.8473C18.5356 30.1051 18.8853 30.25 19.25 30.25H28.875C29.2397 30.25 29.5894 30.1051 29.8473 29.8473C30.1051 29.5894 30.25 29.2397 30.25 28.875V19.25C30.25 18.8853 30.1051 18.5356 29.8473 18.2777C29.5894 18.0199 29.2397 17.875 28.875 17.875ZM27.5 27.5H20.625V20.625H27.5V27.5ZM13.75 2.75H4.125C3.76033 2.75 3.41059 2.89487 3.15273 3.15273C2.89487 3.41059 2.75 3.76033 2.75 4.125V13.75C2.75 14.1147 2.89487 14.4644 3.15273 14.7223C3.41059 14.9801 3.76033 15.125 4.125 15.125H13.75C14.1147 15.125 14.4644 14.9801 14.7223 14.7223C14.9801 14.4644 15.125 14.1147 15.125 13.75V4.125C15.125 3.76033 14.9801 3.41059 14.7223 3.15273C14.4644 2.89487 14.1147 2.75 13.75 2.75ZM12.375 12.375H5.5V5.5H12.375V12.375Z" fill="#CDCDCD"/>
</svg>
