<svg width="33" height="33" viewBox="0 0 33 33" fill="none" xmlns="http://www.w3.org/2000/svg">
<path d="M16.5 19.5186C16.2587 19.5185 16.0216 19.4551 15.8125 19.3346L3.43751 12.1884C2.77973 11.8084 2.55448 10.9672 2.93442 10.3094C3.05509 10.1005 3.2286 9.92695 3.43751 9.80628L15.8125 2.66541C16.2383 2.42102 16.7618 2.42102 17.1875 2.66541L29.5625 9.80628C30.2203 10.1862 30.4456 11.0275 30.0656 11.6853C29.9449 11.8942 29.7714 12.0677 29.5625 12.1884L17.1875 19.3346C16.9784 19.4551 16.7413 19.5185 16.5 19.5186Z" fill="#FFC029"/>
<path d="M29.5625 15.3063L26.8619 13.7479L17.1875 19.3346C16.762 19.5799 16.238 19.5799 15.8125 19.3346L6.13817 13.7479L3.43751 15.3063C2.77973 15.6862 2.55448 16.5275 2.93442 17.1853C3.05509 17.3942 3.2286 17.5677 3.43751 17.6884L15.8125 24.8346C16.238 25.0799 16.762 25.0799 17.1875 24.8346L29.5625 17.6884C30.2203 17.3084 30.4456 16.4672 30.0656 15.8094C29.9449 15.6005 29.7714 15.4269 29.5625 15.3063Z" fill="#FD9F24"/>
<path d="M29.5625 20.8063L26.8619 19.2479L17.1875 24.8346C16.762 25.0799 16.238 25.0799 15.8125 24.8346L6.13817 19.2479L3.43751 20.8063C2.77973 21.1862 2.55448 22.0275 2.93442 22.6853C3.05509 22.8942 3.2286 23.0677 3.43751 23.1884L15.8125 30.3346C16.238 30.5799 16.762 30.5799 17.1875 30.3346L29.5625 23.1884C30.2203 22.8084 30.4456 21.9672 30.0656 21.3094C29.9449 21.1005 29.7714 20.9269 29.5625 20.8063Z" fill="#FB7C1F"/>
</svg>
