<svg width="176" height="100" viewBox="0 0 176 100" fill="none" xmlns="http://www.w3.org/2000/svg">
<g clip-path="url(#clip0_2266_33672)">
<path d="M104.96 46.003C104.96 47.8267 104.99 49.653 104.979 51.4767C105.103 53.8975 104.093 55.7668 102.359 57.3215C99.2435 60.1135 95.4952 61.5229 91.4292 62.1443C84.9936 63.1287 78.9268 62.1012 73.5225 58.3383C68.1774 54.621 65.4604 49.3007 64.6365 42.9421C63.9094 37.2936 64.8654 31.914 67.9593 27.1155C72.8062 19.5842 79.8585 16.1601 88.8253 16.7384C92.8456 17.0074 96.5266 18.2205 99.7686 20.6601C99.9679 20.8107 100.164 20.9667 100.356 21.1281C103.382 23.7237 102.599 27.8148 98.81 29.2485C97.644 29.6869 96.6558 29.2942 95.6784 28.689C91.9812 26.4269 88.004 26.0423 83.9111 27.2554C78.9026 28.7401 76.3283 32.3525 75.5636 37.3716C75.0858 40.1717 75.3933 43.0493 76.4522 45.6856C78.2429 50.0619 81.6438 52.3024 86.2053 52.8565C88.8253 53.1739 91.4157 52.9076 93.8688 51.7806C94.5986 51.4444 94.9809 51.0194 94.9459 50.1668C94.8759 48.7412 94.8974 47.3049 94.9271 45.8631C94.9271 45.1584 94.6874 44.9271 93.9738 44.9594C92.474 45.032 90.9688 45.0428 89.4662 45.0347C88.9481 45.0414 88.4338 44.9458 87.9528 44.7534C87.4719 44.5609 87.0337 44.2753 86.6636 43.9131C86.2935 43.5509 85.9988 43.1192 85.7962 42.6428C85.5937 42.1665 85.4875 41.6548 85.4836 41.1372C85.3705 37.6405 86.8893 36.1128 90.441 36.1316C93.9415 36.1504 97.4609 36.1316 100.97 36.1477C103.813 36.1477 104.987 37.342 104.99 40.2012L104.96 46.003Z" fill="white"/>
<path d="M133.471 31.8871C134.836 29.0575 138.396 28.03 141.164 29.6546C142.435 30.3997 142.992 31.5617 142.995 32.963C143.014 41.1561 143.025 49.3491 142.995 57.5394C142.979 60.3475 141.649 61.6278 138.838 61.7892C138.479 61.8107 138.121 61.8107 137.76 61.8081C135.046 61.8081 134.023 61.1033 133.072 58.5803C132.755 58.8305 132.45 59.0645 132.151 59.3093C127.073 63.473 118.655 63.2686 113.873 58.8305C111.18 56.3317 109.856 53.1255 109.419 49.5589C108.916 45.4624 109.18 41.4277 110.798 37.5572C112.987 32.3256 116.959 29.5201 122.53 28.7697C126.421 28.2479 129.933 28.923 132.919 31.6128C133.028 31.7051 133.147 31.7845 133.274 31.8495C133.337 31.8736 133.404 31.8863 133.471 31.8871ZM133.449 44.997C133.449 44.6043 133.466 44.2116 133.449 43.8189C133.299 40.3787 131.026 37.6486 127.743 36.96C126.116 36.6373 124.428 36.871 122.95 37.6233C121.472 38.3757 120.29 39.603 119.595 41.1076C118.682 43.0739 118.518 45.1423 118.755 47.2941C118.874 48.4531 119.276 49.5652 119.926 50.533C120.575 51.5008 121.452 52.2949 122.48 52.8457C123.508 53.3964 124.655 53.6871 125.822 53.6923C126.988 53.6975 128.138 53.417 129.171 52.8754C132.399 51.2185 133.53 48.4238 133.449 44.997Z" fill="white"/>
<path d="M158.295 46.4468C158.295 50.5272 158.349 54.6076 158.279 58.6852C158.225 61.6951 157.932 64.6807 156.462 67.4135C154.092 71.8301 148.251 74.2106 143.466 72.6935C141.452 72.0561 140.432 70.7435 140.386 68.6589C140.371 68.1885 140.501 67.7249 140.758 67.3306C141.015 66.9363 141.387 66.6301 141.824 66.4533C142.375 66.1996 142.968 66.0474 143.574 66.0041C146.73 65.7701 148.486 64.1643 148.69 60.9393C148.879 57.768 148.873 54.5807 148.887 51.3987C148.908 45.6372 148.887 39.8784 148.887 34.1169C148.865 33.4402 148.934 32.7636 149.091 32.105C149.501 30.6633 150.626 29.9075 152.148 29.9075C153.042 29.9075 153.936 29.9075 154.84 29.8886C157.065 29.8241 158.341 31.0748 158.341 33.3504C158.341 37.7168 158.341 42.0813 158.341 46.4441L158.295 46.4468Z" fill="white"/>
<path d="M147.581 21.5262C147.6 18.3146 150.077 15.8777 153.338 15.8777C156.725 15.8777 159.243 18.398 159.216 21.7682C159.192 24.8857 156.58 27.4168 153.386 27.4168C152.615 27.4209 151.851 27.2706 151.139 26.9749C150.426 26.6792 149.781 26.244 149.239 25.6949C148.698 25.1459 148.273 24.4942 147.988 23.7782C147.703 23.0622 147.565 22.2965 147.581 21.5262Z" fill="white"/>
<path d="M174.616 45.7475C174.616 49.7821 174.616 53.8302 174.616 57.8729C174.616 60.2749 173.808 61.2298 171.422 61.6386C170.578 61.7867 169.72 61.8346 168.864 61.7812C166.546 61.6198 165.076 60.0247 165.07 57.6712C165.054 49.6611 165.054 41.6501 165.07 33.6382C165.07 31.0614 166.379 29.8375 168.926 29.894C169.677 29.9102 170.429 29.9128 171.18 29.894C173.305 29.8322 174.611 31.0479 174.621 33.1944C174.643 37.3796 174.621 41.5649 174.621 45.7475H174.616Z" fill="white"/>
<path d="M175.744 21.6634C175.748 22.4254 175.598 23.1804 175.306 23.8841C175.013 24.5877 174.582 25.2259 174.039 25.7611C173.496 26.2963 172.852 26.7177 172.143 27.0007C171.435 27.2836 170.677 27.4223 169.914 27.4087C168.372 27.3769 166.906 26.7366 165.835 25.6277C164.764 24.5188 164.177 23.0316 164.2 21.4912C164.214 20.7306 164.379 19.9804 164.685 19.2838C164.991 18.5872 165.432 17.9581 165.983 17.4328C166.534 16.9076 167.184 16.4966 167.894 16.2237C168.605 15.9507 169.363 15.8213 170.124 15.8427C173.375 15.918 175.779 18.4087 175.744 21.6634Z" fill="white"/>
<path d="M29.1004 85.7227C28.9527 85.5545 28.7684 85.4222 28.5617 85.3359C28.3549 85.2497 28.1312 85.2118 27.9075 85.2251H25.7533V79.4206C25.7672 79.1788 25.7235 78.9371 25.6256 78.7155C25.5278 78.4938 25.3787 78.2985 25.1906 78.1457C24.8539 77.8708 24.4325 77.7207 23.9977 77.7207C23.5623 77.7193 23.1398 77.8685 22.8021 78.143C22.6146 78.2963 22.4662 78.4917 22.3688 78.7133C22.2715 78.9349 22.228 79.1764 22.242 79.4179V98.1844C22.2282 98.4256 22.2718 98.6666 22.3691 98.8877C22.4665 99.1088 22.6149 99.3038 22.8021 99.4567C23.139 99.7322 23.5609 99.8828 23.9963 99.8828C24.4317 99.8828 24.8537 99.7322 25.1906 99.4567C25.3786 99.3044 25.5277 99.1096 25.6256 98.8884C25.7234 98.6671 25.7672 98.4259 25.7533 98.1844V88.2135H27.9075C28.1315 88.2271 28.3555 88.189 28.5624 88.1023C28.7692 88.0155 28.9533 87.8824 29.1004 87.7132C29.3385 87.4361 29.4694 87.0831 29.4694 86.7179C29.4694 86.3528 29.3385 85.9998 29.1004 85.7227Z" fill="white"/>
<path d="M18.8276 80.1953C18.4557 79.8518 18.0178 79.5873 17.5405 79.4179C17.0323 79.2372 16.4966 79.1462 15.9572 79.149H10.3697C10.1378 79.1317 9.90496 79.1684 9.68958 79.2561C9.4742 79.3439 9.28211 79.4803 9.12837 79.6546C8.89388 79.9264 8.7632 80.2723 8.75947 80.631C8.75417 81.0133 8.8849 81.385 9.12837 81.68C9.2825 81.8539 9.47466 81.99 9.68994 82.0777C9.90522 82.1653 10.1378 82.2023 10.3697 82.1857H15.6637C15.8794 82.1767 16.0907 82.2486 16.256 82.3874C16.3398 82.4735 16.4037 82.5769 16.4432 82.6903C16.4828 82.8036 16.497 82.9243 16.4849 83.0437V84.3886C16.4828 85.1113 16.2886 85.8205 15.9222 86.4436C15.5117 87.1383 14.9842 87.7571 14.3631 88.2726C13.6492 88.8673 12.8706 89.3798 12.0419 89.8004C11.1537 90.261 10.2287 90.647 9.27648 90.9543C8.93327 91.0393 8.6373 91.2557 8.4525 91.5568C8.30635 91.801 8.22739 92.0793 8.22362 92.3638C8.22266 92.5885 8.26807 92.811 8.35702 93.0174C8.44597 93.2238 8.57656 93.4096 8.74063 93.5634C8.86844 93.6908 9.0206 93.7912 9.18806 93.8587C9.35552 93.9262 9.53486 93.9593 9.7154 93.9561C9.89764 93.9549 10.0789 93.9286 10.2539 93.8781C11.5953 93.4905 12.8901 92.9574 14.1153 92.2884C15.2327 91.6847 16.2695 90.9428 17.2012 90.0801C18.0357 89.3082 18.7307 88.3983 19.2558 87.3904C19.7433 86.4587 20 85.4238 20.0043 84.3725V83.0572C20.0134 82.4932 19.9081 81.9332 19.6947 81.411C19.4939 80.9497 19.1985 80.5355 18.8276 80.1953Z" fill="white"/>
<path d="M44.8045 88.4044H43.4581C43.2858 88.4044 43.2104 88.4044 43.2104 88.1355V83.2051C43.2213 83.0052 43.1848 82.8054 43.1038 82.6222C43.0229 82.439 42.8998 82.2775 42.7445 82.1507C42.4654 81.9247 42.117 81.8014 41.7576 81.8014C41.3983 81.8014 41.0499 81.9247 40.7707 82.1507C40.6149 82.2765 40.4911 82.4374 40.4097 82.6202C40.3282 82.8031 40.2914 83.0026 40.3022 83.2024V88.1677C40.3022 89.0338 40.5311 89.709 40.9781 90.1716C41.4251 90.6342 42.1575 90.8871 43.1323 90.8871H44.8152C45.0024 90.8983 45.1897 90.8664 45.3625 90.7936C45.5353 90.7208 45.6889 90.6092 45.8115 90.4675C46.0081 90.2387 46.1162 89.9472 46.1162 89.6458C46.1162 89.3443 46.0081 89.0528 45.8115 88.824C45.6875 88.6811 45.5321 88.5689 45.3573 88.4961C45.1826 88.4233 44.9934 88.3919 44.8045 88.4044Z" fill="white"/>
<path d="M41.9501 91.8124C41.4644 91.3679 40.8989 91.0192 40.2833 90.7849C39.7956 90.5998 39.2845 90.483 38.7646 90.4379C38.9751 90.3584 39.1609 90.2248 39.3032 90.0506C39.5291 89.798 39.6555 89.4721 39.6586 89.1334C39.6563 88.9215 39.5987 88.7138 39.4917 88.5309C39.3618 88.3163 39.1755 88.1414 38.9531 88.0252C38.455 87.7725 37.984 87.4697 37.5475 87.1214C37.2159 86.8546 36.92 86.5463 36.667 86.2042C36.4647 85.9303 36.3092 85.625 36.2065 85.3005C36.1492 85.1086 36.1068 84.9125 36.08 84.7141H38.113C38.3014 84.7263 38.4902 84.6962 38.6654 84.6259C38.8406 84.5556 38.9978 84.4469 39.1255 84.3079C39.3222 84.0848 39.4321 83.7984 39.4351 83.501C39.4365 83.1933 39.3287 82.895 39.1309 82.6591C39.0046 82.5162 38.8471 82.404 38.6707 82.3313C38.4942 82.2585 38.3035 82.2271 38.113 82.2395H30.9261C30.7389 82.2282 30.5516 82.2602 30.3788 82.333C30.206 82.4058 30.0524 82.5174 29.9298 82.6591C29.7299 82.894 29.621 83.1927 29.6228 83.501C29.6221 83.6686 29.6559 83.8346 29.7221 83.9886C29.7884 84.1426 29.8857 84.2813 30.0079 84.3961C30.1302 84.5109 30.2748 84.5993 30.4328 84.6559C30.5907 84.7125 30.7586 84.7359 30.9261 84.7248H33.0237C32.9975 84.9415 32.9497 85.1551 32.881 85.3623C32.7544 85.7317 32.5729 86.0799 32.3425 86.3952C32.0649 86.7826 31.7422 87.1356 31.3812 87.4469C30.9342 87.8291 30.4498 88.1652 29.9352 88.4502C29.7132 88.5646 29.5269 88.7376 29.3966 88.9505C29.2892 89.1333 29.2317 89.341 29.2297 89.553C29.233 89.8938 29.3658 90.2207 29.6013 90.4675C29.7264 90.6109 29.8813 90.7254 30.0552 90.803C30.2291 90.8806 30.4179 90.9194 30.6083 90.9167C30.8824 90.9205 31.151 90.8408 31.3785 90.6881C32.0651 90.2648 32.7154 89.7853 33.3226 89.2544C33.7798 88.8568 34.1948 88.4133 34.5613 87.931C34.8982 88.3421 35.2743 88.7195 35.6842 89.0581C36.2551 89.5261 36.867 89.942 37.5125 90.3007C37.5985 90.3528 37.6885 90.3978 37.7818 90.4352C37.193 90.4653 36.6125 90.5869 36.0611 90.7956C35.4467 91.0287 34.8834 91.3785 34.4024 91.8258C33.9446 92.2579 33.5783 92.7775 33.3253 93.3536C32.9338 94.2342 32.8271 95.215 33.0202 96.159C33.2133 97.1031 33.6965 97.9635 34.4024 98.6202C34.8854 99.0623 35.4483 99.4083 36.0611 99.6396C36.733 99.8929 37.4461 100.02 38.1642 100.013C38.8761 100.019 39.5827 99.8919 40.2483 99.6396C40.8623 99.407 41.4275 99.0622 41.9151 98.6229C42.3851 98.1896 42.7601 97.6639 43.0167 97.0788C43.2732 96.4936 43.4056 95.8618 43.4056 95.223C43.4056 94.5842 43.2732 93.9524 43.0167 93.3672C42.7601 92.7821 42.3851 92.2563 41.9151 91.8231L41.9501 91.8124ZM38.2099 92.8883C38.5243 92.8856 38.8362 92.9441 39.1282 93.0604C39.4059 93.1711 39.6584 93.3365 39.8708 93.5467C40.0831 93.757 40.2509 94.0078 40.3641 94.2843C40.6047 94.8768 40.6047 95.5396 40.3641 96.1321C40.2515 96.4054 40.0838 96.6527 39.8714 96.8584C39.6569 97.0631 39.4057 97.2255 39.1309 97.3371C38.5383 97.5658 37.8816 97.5658 37.289 97.3371C37.0134 97.2256 36.7613 97.0631 36.5458 96.8584C36.3343 96.6519 36.1667 96.4049 36.0531 96.1321C35.8125 95.5396 35.8125 94.8768 36.0531 94.2843C36.1673 94.0085 36.3355 93.7582 36.5477 93.5481C36.7599 93.3379 37.0119 93.1721 37.289 93.0604C37.5784 92.9488 37.8863 92.8931 38.1965 92.8963L38.2099 92.8883Z" fill="white"/>
<path d="M60.1073 83.7511C59.8108 83.4724 59.4596 83.2581 59.076 83.1217C58.6699 82.977 58.2415 82.9051 57.8104 82.9092H53.4616C53.2907 82.8952 53.1188 82.9165 52.9566 82.9719C52.7944 83.0274 52.6454 83.1157 52.519 83.2314C52.3925 83.347 52.2914 83.4876 52.2219 83.6441C52.1525 83.8007 52.1161 83.9699 52.1152 84.1412C52.114 84.4563 52.2236 84.7619 52.4249 85.0046C52.5533 85.1503 52.7137 85.2645 52.8935 85.3382C53.0733 85.4119 53.2677 85.4432 53.4616 85.4295H57.5842C57.6612 85.4235 57.7387 85.4351 57.8105 85.4635C57.8824 85.4919 57.9468 85.5364 57.9987 85.5935C58.0507 85.6506 58.0889 85.7189 58.1104 85.793C58.1319 85.8672 58.1361 85.9453 58.1227 86.0213V87.0622C58.1209 87.6118 57.9732 88.1511 57.6946 88.625C57.3805 89.1579 56.9759 89.6321 56.499 90.0264C55.949 90.4847 55.3493 90.8798 54.711 91.2045C54.0254 91.5604 53.3112 91.8582 52.5757 92.0948C52.2874 92.1675 52.0391 92.35 51.8837 92.6031C51.7609 92.8051 51.6957 93.0367 51.6952 93.2729C51.6943 93.4578 51.7317 93.6409 51.8049 93.8108C51.8781 93.9806 51.9856 94.1336 52.1206 94.26C52.2293 94.3676 52.3584 94.4523 52.5004 94.5091C52.6424 94.5659 52.7944 94.5937 52.9473 94.5909C53.095 94.5898 53.2418 94.568 53.3835 94.5263C54.4337 94.2229 55.4476 93.8063 56.4075 93.2837C57.2844 92.8093 58.0985 92.2274 58.8309 91.5514C59.4859 90.9467 60.0324 90.2344 60.4466 89.4454C60.8307 88.7094 61.0329 87.8922 61.0363 87.0622V86.0401C61.0461 85.5938 60.9655 85.15 60.7993 84.7356C60.6412 84.3621 60.4053 84.0265 60.1073 83.7511Z" fill="white"/>
<path d="M68.1101 88.0628C67.9873 87.9204 67.8333 87.8082 67.66 87.7349C67.4868 87.6617 67.2989 87.6294 67.1111 87.6405H65.5224V83.2051C65.5333 83.0052 65.4968 82.8054 65.4158 82.6222C65.3349 82.439 65.2118 82.2775 65.0565 82.1507C64.777 81.9245 64.4281 81.801 64.0683 81.801C63.7085 81.801 63.3596 81.9245 63.0801 82.1507C62.9245 82.2766 62.8012 82.4376 62.7202 82.6205C62.6392 82.8033 62.6029 83.0028 62.6142 83.2024V97.8025C62.6035 98.002 62.6401 98.2013 62.7211 98.384C62.802 98.5668 62.925 98.7279 63.0801 98.8542C63.3598 99.0788 63.708 99.2012 64.067 99.2012C64.4259 99.2012 64.7741 99.0788 65.0538 98.8542C65.2092 98.728 65.3326 98.567 65.414 98.3843C65.4954 98.2015 65.5325 98.0022 65.5224 97.8025V90.1151H67.1111C67.2986 90.126 67.4862 90.0938 67.6593 90.0211C67.8325 89.9484 67.9867 89.837 68.1101 89.6955C68.3067 89.4668 68.4148 89.1753 68.4148 88.8738C68.4148 88.5723 68.3067 88.2808 68.1101 88.0521V88.0628Z" fill="white"/>
<path d="M76.0914 82.9173H74.3519C74.0267 82.9026 73.7075 83.0079 73.4552 83.2132C73.4068 83.2562 73.3609 83.302 73.3179 83.3504C72.81 83.0432 72.2227 82.8925 71.6295 82.9173H69.9842C69.8129 82.9052 69.6409 82.9282 69.4789 82.9851C69.3168 83.0419 69.1681 83.1313 69.0419 83.2477C68.9158 83.3641 68.8149 83.5052 68.7454 83.6621C68.6759 83.819 68.6393 83.9884 68.6379 84.16C68.638 84.4671 68.7521 84.7633 68.9583 84.9911C69.0866 85.1309 69.2447 85.2401 69.4208 85.3109C69.5969 85.3816 69.7867 85.4121 69.9762 85.4H71.1691C71.3118 85.4 71.4383 85.4 71.4383 85.7496V86.3817C71.4511 87.3809 71.1864 88.3641 70.6736 89.2221C70.1526 90.0782 69.4866 90.8373 68.7052 91.4654C68.5557 91.5727 68.434 91.7141 68.3502 91.8778C68.2664 92.0416 68.2228 92.2229 68.2232 92.4068C68.2202 92.7339 68.3447 93.0494 68.5706 93.2864C68.6883 93.4176 68.8329 93.5221 68.9946 93.5926C69.1562 93.6631 69.3312 93.6981 69.5076 93.6952C69.811 93.6971 70.1061 93.5966 70.3451 93.4101C70.9187 92.9842 71.4539 92.509 71.9446 91.9899C72.4195 91.4858 72.8376 90.931 73.1913 90.3357C73.5356 89.7476 73.8068 89.1199 73.9991 88.4663C74.1989 87.7895 74.2996 87.0873 74.298 86.3817V85.5264C74.298 85.4833 74.298 85.443 74.298 85.4H75.6094C75.7521 85.4 75.8786 85.4 75.8786 85.7496V86.7529C75.8788 88.9491 75.0073 91.0557 73.4552 92.6112C73.338 92.7213 73.2448 92.8543 73.1813 93.0019C73.1179 93.1495 73.0855 93.3086 73.0863 93.4693C73.0863 93.8039 73.219 94.1249 73.4552 94.3623C73.5737 94.4906 73.7173 94.5933 73.877 94.6641C74.0368 94.735 74.2094 94.7724 74.3842 94.7742C74.5589 94.7759 74.7322 94.742 74.8934 94.6744C75.0545 94.6068 75.2001 94.507 75.3212 94.3811C76.3465 93.3808 77.1902 92.2105 77.8147 90.922C78.4326 89.6185 78.7474 88.1924 78.7356 86.7502V85.5237C78.7356 84.6307 78.5014 83.9636 78.0328 83.544C77.4868 83.1001 76.7942 82.8765 76.0914 82.9173Z" fill="white"/>
<path d="M85.0528 88.6035C85.0507 88.3024 84.9419 88.0118 84.7458 87.7831C84.6232 87.6414 84.4695 87.5298 84.2968 87.457C84.124 87.3842 83.9367 87.3522 83.7495 87.3635H82.4435V83.2051C82.4541 83.0049 82.4172 82.8051 82.3358 82.6218C82.2544 82.4386 82.1307 82.2772 81.975 82.1507C81.6959 81.9247 81.3474 81.8014 80.9881 81.8014C80.6288 81.8014 80.2804 81.9247 80.0012 82.1507C79.8457 82.2766 79.7223 82.4376 79.6413 82.6205C79.5604 82.8033 79.524 83.0028 79.5354 83.2024V97.8025C79.5247 98.002 79.5613 98.2013 79.6422 98.384C79.7232 98.5668 79.8462 98.7279 80.0012 98.8542C80.281 99.0788 80.6292 99.2012 80.9881 99.2012C81.3471 99.2012 81.6952 99.0788 81.975 98.8542C82.1304 98.728 82.2537 98.567 82.3352 98.3843C82.4166 98.2015 82.4537 98.0022 82.4435 97.8025V89.8461H83.7495C83.9367 89.8574 84.124 89.8254 84.2968 89.7526C84.4695 89.6799 84.6232 89.5683 84.7458 89.4265C84.9421 89.1969 85.0508 88.9054 85.0528 88.6035Z" fill="white"/>
<path d="M97.2671 97.0708H90.1771C90.1073 97.0764 90.0371 97.0675 89.9709 97.0449C89.9046 97.0222 89.8438 96.9862 89.792 96.9391C89.6767 96.7848 89.6247 96.5924 89.6466 96.4011V94.2305C89.6564 94.0251 89.617 93.8204 89.5318 93.6333C89.4465 93.4462 89.3179 93.2821 89.1565 93.1546C88.8723 92.9267 88.5193 92.8016 88.1548 92.7995C87.7792 92.7941 87.4138 92.9218 87.1235 93.1599C86.9689 93.2916 86.8468 93.4573 86.7669 93.6439C86.687 93.8306 86.6515 94.0332 86.6631 94.2358V96.4683C86.6631 97.4501 86.9458 98.2167 87.5086 98.7493C88.1175 99.301 88.9195 99.5909 89.7409 99.5562H97.2671C97.4545 99.5675 97.642 99.5353 97.8149 99.462C97.9878 99.3888 98.1413 99.2764 98.2634 99.1339C98.46 98.9052 98.568 98.6137 98.568 98.3122C98.568 98.0107 98.46 97.7192 98.2634 97.4905C98.1408 97.3487 97.9871 97.2371 97.8143 97.1644C97.6415 97.0916 97.4542 97.0596 97.2671 97.0708Z" fill="white"/>
<path d="M98.8289 89.3082H96.9924C97.1892 89.0416 97.3571 88.7548 97.4933 88.4528C97.747 87.8804 97.8755 87.2605 97.8702 86.6346C97.8727 85.9723 97.7293 85.3175 97.4502 84.7168C97.1719 84.1263 96.7814 83.5956 96.3004 83.154C95.7902 82.6949 95.1971 82.337 94.5528 82.0996C93.8539 81.842 93.1139 81.7135 92.369 81.7204C91.6266 81.7129 90.8892 81.8415 90.1932 82.0996C89.5537 82.3384 88.9652 82.6962 88.4591 83.154C87.9766 83.5951 87.5874 84.1283 87.3147 84.7221C87.0491 85.3189 86.9142 85.9654 86.9189 86.6184C86.9134 87.2461 87.0448 87.8675 87.3039 88.4394C87.4414 88.741 87.6112 89.0269 87.8102 89.292H85.971C85.7995 89.2767 85.6267 89.2979 85.464 89.3544C85.3013 89.4108 85.1526 89.5012 85.0275 89.6195C84.9025 89.7378 84.8041 89.8813 84.7388 90.0405C84.6735 90.1996 84.6429 90.3709 84.6489 90.5428C84.6457 90.8506 84.757 91.1487 84.9613 91.3793C85.0901 91.5154 85.2474 91.6214 85.4219 91.6897C85.5965 91.7581 85.784 91.7871 85.971 91.7747H91.343V94.7334C91.33 94.9368 91.3654 95.1403 91.4464 95.3274C91.5274 95.5144 91.6516 95.6796 91.8089 95.8093C92.0937 96.0332 92.4455 96.1548 92.8079 96.1548C93.1703 96.1548 93.5221 96.0332 93.8069 95.8093C93.9682 95.6821 94.0962 95.5179 94.1802 95.3305C94.2641 95.1432 94.3014 94.9383 94.2889 94.7334V91.7747H98.8396C99.0265 91.7862 99.2137 91.7573 99.3884 91.69C99.5632 91.6227 99.7213 91.5185 99.8521 91.3847C100.066 91.1566 100.183 90.8552 100.181 90.5428C100.186 90.2244 100.068 89.9163 99.8521 89.6821C99.7187 89.5497 99.5581 89.4477 99.3815 89.3832C99.2048 89.3187 99.0163 89.2931 98.8289 89.3082ZM94.9621 86.7637C94.9642 87.1067 94.8983 87.4468 94.7682 87.7643C94.645 88.0668 94.4618 88.3413 94.2297 88.5712C93.991 88.8002 93.7115 88.9827 93.4057 89.1091C92.7491 89.3728 92.0158 89.3728 91.3592 89.1091C91.059 88.9812 90.7851 88.7988 90.5514 88.5712C90.3186 88.3417 90.1354 88.0671 90.0128 87.7643C89.8849 87.4462 89.82 87.1064 89.8217 86.7637C89.8182 86.419 89.8832 86.0771 90.0128 85.7577C90.1348 85.4616 90.3184 85.1948 90.5514 84.975C90.7836 84.7455 91.0579 84.5629 91.3592 84.437C92.0213 84.1824 92.7544 84.1824 93.4165 84.437C93.7177 84.5631 93.9919 84.7457 94.2243 84.975C94.4565 85.1955 94.64 85.4621 94.7628 85.7577C94.8951 86.0728 94.9628 86.4112 94.9621 86.7529V86.7637Z" fill="white"/>
<path d="M119.913 91.0323C119.23 90.5718 118.59 90.0506 118.001 89.475C117.449 88.9322 116.974 88.3158 116.59 87.6432C116.198 86.9378 115.903 86.1822 115.715 85.3973C115.501 84.4869 115.398 83.5539 115.408 82.6187V82.1669H118.171C118.374 82.1848 118.579 82.1602 118.773 82.0946C118.966 82.0291 119.144 81.924 119.294 81.7861C119.444 81.6482 119.565 81.4804 119.647 81.2936C119.729 81.1068 119.771 80.9049 119.77 80.7009C119.772 80.329 119.641 79.9686 119.401 79.6842C119.25 79.5132 119.062 79.3792 118.851 79.2925C118.64 79.2057 118.412 79.1686 118.184 79.1839H108.964C108.74 79.1703 108.516 79.2084 108.309 79.2951C108.103 79.3819 107.919 79.515 107.771 79.6842C107.531 79.9686 107.401 80.329 107.403 80.7009C107.403 81.0645 107.536 81.4156 107.777 81.6881C107.925 81.853 108.109 81.9822 108.315 82.0661C108.521 82.1499 108.743 82.1862 108.964 82.1722H111.8V82.2422C111.8 84.2972 111.417 86.0724 110.661 87.5141C109.888 88.9672 108.761 90.2023 107.384 91.1049C107.169 91.2348 106.991 91.4169 106.865 91.6342C106.74 91.8515 106.672 92.0969 106.667 92.3476C106.676 92.7668 106.842 93.1674 107.133 93.4692C107.286 93.6401 107.474 93.7765 107.684 93.8692C107.894 93.962 108.121 94.009 108.35 94.0072C108.728 93.9961 109.092 93.8694 109.395 93.6441C110.394 92.9394 111.285 92.0931 112.039 91.1318C112.619 90.3904 113.134 89.6002 113.577 88.7702C114.035 89.5869 114.564 90.3618 115.158 91.0861C115.946 92.0406 116.864 92.8799 117.885 93.5795C118.187 93.814 118.556 93.9434 118.938 93.948C119.168 93.9498 119.395 93.9028 119.605 93.8101C119.815 93.7173 120.002 93.5809 120.155 93.4101C120.455 93.1039 120.625 92.6948 120.632 92.2669C120.626 92.0173 120.557 91.7732 120.431 91.5574C120.305 91.3416 120.127 91.161 119.913 91.0323Z" fill="white"/>
<path d="M124.709 78.143C124.372 77.8674 123.95 77.7169 123.515 77.7169C123.079 77.7169 122.657 77.8674 122.32 78.143C122.133 78.2963 121.984 78.4917 121.887 78.7133C121.79 78.9349 121.746 79.1764 121.76 79.4179V98.1548C121.746 98.396 121.79 98.637 121.887 98.8581C121.985 99.0792 122.133 99.2742 122.32 99.4271C122.657 99.7026 123.079 99.8532 123.515 99.8532C123.95 99.8532 124.372 99.7026 124.709 99.4271C124.897 99.2748 125.046 99.08 125.144 98.8588C125.242 98.6376 125.285 98.3963 125.272 98.1548V79.4179C125.285 79.1761 125.242 78.9344 125.144 78.7128C125.046 78.4911 124.897 78.2958 124.709 78.143Z" fill="white"/>
<path d="M140.97 81.8011C140.611 81.8008 140.263 81.9243 139.985 82.1507C139.829 82.2765 139.705 82.4374 139.624 82.6202C139.542 82.8031 139.505 83.0026 139.516 83.2024V83.6597H136.638C136.208 83.141 135.667 82.7263 135.054 82.4466C133.736 81.8595 132.242 81.8074 130.886 82.3014C130.307 82.5136 129.776 82.8391 129.324 83.2589C128.881 83.6768 128.526 84.1788 128.279 84.7356C128.022 85.3431 127.889 85.9962 127.889 86.6561C127.889 87.3159 128.022 87.969 128.279 88.5766C128.526 89.1305 128.883 89.6291 129.327 90.0425C129.78 90.4562 130.31 90.7777 130.886 90.9893C131.494 91.2128 132.137 91.3257 132.784 91.3228C133.57 91.3301 134.348 91.1649 135.062 90.8387C135.686 90.5562 136.238 90.137 136.678 89.6121H139.521V90.7418C139.511 90.9416 139.548 91.1411 139.629 91.3239C139.711 91.5067 139.834 91.6676 139.99 91.7935C140.27 92.0182 140.618 92.1406 140.977 92.1406C141.336 92.1406 141.684 92.0182 141.964 91.7935C142.119 91.6674 142.242 91.5063 142.323 91.3235C142.404 91.1407 142.441 90.9414 142.43 90.7418V83.2024C142.44 83.0025 142.404 82.8028 142.323 82.6197C142.242 82.4365 142.119 82.2749 141.964 82.148C141.682 81.9224 141.331 81.7999 140.97 81.8011ZM137.669 86.1666V86.1074H139.524V87.1833H137.682C137.684 87.1726 137.684 87.1617 137.682 87.151C137.682 86.9977 137.704 86.8417 137.704 86.6857C137.702 86.5121 137.69 86.3388 137.669 86.1666ZM134.85 86.6803C134.855 87.0024 134.797 87.3225 134.677 87.6217C134.572 87.8814 134.415 88.1174 134.217 88.3157C134.031 88.4999 133.809 88.6445 133.565 88.7407C133.066 88.9371 132.511 88.9371 132.011 88.7407C131.767 88.6446 131.544 88.5 131.357 88.3157C131.16 88.1165 131.003 87.8808 130.897 87.6217C130.778 87.3221 130.72 87.0023 130.724 86.6803C130.718 86.352 130.777 86.0257 130.897 85.72C131.003 85.4605 131.159 85.2246 131.357 85.0261C131.544 84.841 131.767 84.6955 132.011 84.5984C132.258 84.501 132.522 84.4517 132.787 84.4532C133.053 84.4519 133.317 84.5012 133.565 84.5984C133.809 84.6965 134.03 84.8419 134.217 85.0261C134.416 85.2239 134.572 85.46 134.677 85.72C134.799 86.0253 134.857 86.3519 134.85 86.6803Z" fill="white"/>
<path d="M139.212 92.3853H131.888C131.697 92.3725 131.507 92.4037 131.331 92.4765C131.155 92.5493 130.998 92.6617 130.872 92.8049C130.674 93.0329 130.565 93.3247 130.565 93.6266C130.565 93.9285 130.674 94.2203 130.872 94.4483C130.998 94.5916 131.155 94.7039 131.331 94.7767C131.507 94.8495 131.697 94.8807 131.888 94.8679H138.996C139.065 94.8652 139.133 94.8772 139.196 94.9032C139.259 94.9292 139.316 94.9686 139.363 95.0186C139.488 95.1809 139.547 95.3848 139.527 95.5888V98.4157C139.516 98.6155 139.553 98.815 139.635 98.9978C139.716 99.1806 139.84 99.3415 139.995 99.4674C140.275 99.692 140.623 99.8145 140.982 99.8145C141.341 99.8145 141.689 99.692 141.969 99.4674C142.124 99.3418 142.247 99.1812 142.328 98.9989C142.409 98.8165 142.446 98.6176 142.435 98.4184V95.5242C142.435 94.5398 142.125 93.7624 141.514 93.211C140.88 92.6522 140.057 92.3567 139.212 92.3853Z" fill="white"/>
<path d="M160.878 90.2039C160.877 89.9017 160.768 89.6098 160.571 89.3808C160.448 89.2391 160.294 89.1275 160.122 89.0547C159.949 88.9819 159.761 88.9499 159.574 88.9612H158.228C158.058 88.9612 157.98 88.9612 157.98 88.7057V83.2213C157.991 83.0213 157.955 82.8216 157.874 82.6384C157.793 82.4551 157.67 82.2936 157.514 82.1669C157.235 81.9422 156.886 81.8198 156.527 81.8198C156.169 81.8198 155.82 81.9422 155.541 82.1669C155.385 82.2936 155.262 82.4551 155.181 82.6384C155.1 82.8216 155.064 83.0213 155.075 83.2213V88.7433C155.075 89.6094 155.301 90.2792 155.751 90.7365C156.2 91.1937 156.93 91.46 157.891 91.46H159.574C159.761 91.4713 159.949 91.4393 160.122 91.3665C160.294 91.2937 160.448 91.1821 160.571 91.0404C160.771 90.8079 160.88 90.5106 160.878 90.2039Z" fill="white"/>
<path d="M156.698 92.2669C156.205 91.852 155.639 91.5311 155.029 91.3201C154.624 91.1775 154.205 91.0792 153.78 91.0269C153.901 90.9505 154.008 90.8541 154.097 90.7418C154.282 90.539 154.395 90.2815 154.419 90.0086C154.443 89.7357 154.378 89.4623 154.232 89.2302C154.092 89.0167 153.897 88.8455 153.666 88.7353C152.692 88.2565 151.992 87.7401 151.582 87.1994C151.287 86.8211 151.066 86.3903 150.931 85.9298H152.778C152.966 85.9428 153.155 85.9131 153.331 85.8427C153.506 85.7724 153.663 85.6633 153.79 85.5237C153.988 85.3011 154.098 85.0144 154.1 84.7168C154.101 84.4099 153.993 84.1126 153.796 83.8776C153.669 83.7346 153.512 83.6224 153.336 83.5497C153.159 83.477 152.968 83.4456 152.778 83.458H150.809V82.6725C150.819 82.4688 150.782 82.2655 150.699 82.0788C150.617 81.892 150.493 81.727 150.336 81.5966C150.049 81.3615 149.689 81.2339 149.318 81.2362C148.945 81.2349 148.584 81.3623 148.294 81.5966C148.136 81.726 148.01 81.8908 147.927 82.0776C147.843 82.2645 147.805 82.4682 147.815 82.6725V83.458H145.793C145.605 83.4469 145.418 83.479 145.245 83.5517C145.071 83.6244 144.917 83.7359 144.794 83.8776C144.596 84.1126 144.489 84.4099 144.49 84.7168C144.489 84.8844 144.523 85.0503 144.589 85.2043C144.655 85.3583 144.752 85.497 144.875 85.6118C144.997 85.7267 145.142 85.8151 145.3 85.8716C145.458 85.9282 145.625 85.9517 145.793 85.9406H147.64C147.464 86.4662 147.202 86.9588 146.865 87.3985C146.295 88.1088 145.58 88.6894 144.767 89.1011C144.531 89.2018 144.334 89.374 144.201 89.5933C144.098 89.7723 144.035 89.9714 144.016 90.177C144.001 90.519 144.123 90.8528 144.355 91.1049C144.475 91.2459 144.624 91.3604 144.79 91.4414C144.957 91.5224 145.139 91.5681 145.324 91.5757C145.607 91.5866 145.887 91.5176 146.132 91.3766C146.835 90.9939 147.493 90.5348 148.095 90.0075C148.548 89.6132 148.958 89.1724 149.318 88.6922C149.654 89.1081 150.034 89.4868 150.451 89.8219C151.027 90.2794 151.644 90.6811 152.296 91.0216C151.81 91.0655 151.332 91.1694 150.871 91.3309C150.262 91.5393 149.699 91.8615 149.21 92.2804C148.754 92.679 148.387 93.1694 148.133 93.7194C147.874 94.2826 147.74 94.8951 147.74 95.5148C147.74 96.1346 147.874 96.747 148.133 97.3102C148.391 97.8599 148.763 98.3479 149.226 98.7412C149.717 99.1522 150.279 99.4703 150.885 99.6799C152.235 100.135 153.698 100.135 155.048 99.6799C155.654 99.4684 156.219 99.1515 156.715 98.7439C157.423 98.1411 157.914 97.3235 158.113 96.4158C158.312 95.5081 158.209 94.5602 157.819 93.7167C157.554 93.1583 157.172 92.6637 156.698 92.2669ZM152.966 93.4639C153.286 93.4612 153.603 93.5121 153.906 93.6145C154.176 93.7075 154.426 93.8498 154.644 94.0341C154.849 94.21 155.014 94.4285 155.126 94.6743C155.242 94.9364 155.302 95.22 155.302 95.5067C155.302 95.7935 155.242 96.0771 155.126 96.3392C155.013 96.5783 154.849 96.7902 154.647 96.9606C154.425 97.141 154.174 97.2804 153.903 97.3721C153.292 97.5771 152.63 97.5771 152.018 97.3721C151.748 97.2804 151.496 97.141 151.275 96.9606C151.073 96.7902 150.909 96.5783 150.796 96.3392C150.68 96.0771 150.62 95.7935 150.62 95.5067C150.62 95.22 150.68 94.9364 150.796 94.6743C150.907 94.4279 151.072 94.2093 151.278 94.0341C151.496 93.8498 151.746 93.7075 152.016 93.6145C152.321 93.5082 152.643 93.4545 152.966 93.4558V93.4639Z" fill="white"/>
<path d="M163.6 85.365H170.577C170.646 85.3617 170.715 85.3724 170.78 85.3964C170.844 85.4204 170.904 85.4573 170.954 85.5049C171.071 85.6582 171.126 85.8505 171.107 86.0428C171.113 87.0533 171.054 88.0631 170.932 89.0661C170.808 90.0344 170.639 90.9893 170.426 91.9092C170.36 92.1234 170.354 92.3516 170.409 92.5689C170.464 92.7862 170.578 92.9842 170.738 93.1411C171.028 93.4178 171.415 93.5704 171.815 93.5661C172.115 93.5649 172.408 93.4791 172.661 93.3186C172.803 93.2313 172.926 93.1162 173.023 92.9804C173.12 92.8445 173.188 92.6906 173.224 92.5278C173.483 91.5042 173.681 90.4658 173.816 89.4185C173.96 88.2819 174.03 87.1373 174.026 85.9917C174.032 85.5469 173.95 85.1053 173.784 84.6926C173.629 84.3152 173.398 83.9738 173.105 83.6893C172.81 83.4085 172.46 83.1923 172.077 83.0545C171.671 82.9107 171.244 82.8388 170.814 82.842H163.6C163.429 82.8279 163.257 82.8493 163.094 82.9049C162.932 82.9605 162.783 83.0491 162.656 83.165C162.53 83.281 162.429 83.4219 162.359 83.5787C162.29 83.7356 162.254 83.9051 162.254 84.0766C162.251 84.3911 162.358 84.6966 162.558 84.94C162.687 85.0865 162.848 85.2012 163.029 85.2749C163.21 85.3486 163.405 85.3795 163.6 85.365Z" fill="white"/>
<path d="M175.698 94.5586C175.573 94.4139 175.416 94.3001 175.24 94.2264C175.063 94.1526 174.872 94.1209 174.681 94.1336H168.326V89.6928C168.337 89.4912 168.299 89.2899 168.215 89.1062C168.131 88.9225 168.004 88.762 167.844 88.6384C167.556 88.4118 167.2 88.2895 166.834 88.2915C166.474 88.2912 166.125 88.4147 165.846 88.6411C165.69 88.7673 165.567 88.9284 165.486 89.1111C165.405 89.2939 165.369 89.4933 165.38 89.6928V94.1336H161.777C161.589 94.1225 161.401 94.1548 161.228 94.228C161.055 94.3013 160.901 94.4135 160.778 94.5559C160.582 94.7878 160.475 95.0811 160.474 95.3844C160.472 95.6929 160.58 95.9921 160.778 96.229C160.901 96.3717 161.054 96.4843 161.228 96.558C161.401 96.6317 161.589 96.6646 161.777 96.6539H174.702C174.893 96.6665 175.084 96.6346 175.26 96.5609C175.436 96.4871 175.593 96.3735 175.717 96.229C175.915 95.9921 176.023 95.6929 176.022 95.3844C176.015 95.0796 175.9 94.7871 175.698 94.5586Z" fill="white"/>
<path d="M32.5175 34.6092V42.6785H40.5957V34.6092H32.5175Z" fill="white"/>
<path d="M32.5175 44.6958V52.7651H40.5957V44.6958H32.5175Z" fill="white"/>
<path d="M22.4197 44.6958V52.7651H30.4979V44.6958H22.4197Z" fill="white"/>
<path d="M22.4197 34.6092V42.6785H30.4979V34.6092H22.4197Z" fill="white"/>
<path d="M32.5175 24.5226V32.5919H40.5957V24.5226H32.5175Z" fill="white"/>
<path d="M12.322 44.6958V52.7651H20.4002V44.6958H12.322Z" fill="white"/>
<path d="M53.8897 22.1502C53.8655 21.9942 53.8467 21.8328 53.8251 21.6741L53.7982 21.3917C52.8207 21.1227 51.9294 20.8537 51.5928 20.7515C50.8516 20.4735 50.0662 20.3314 49.2744 20.3319C49.0035 20.3402 48.7335 20.368 48.4666 20.4153L48.5393 20.4556C48.5978 20.4934 48.6512 20.5386 48.6981 20.5901C48.7278 20.886 48.7547 21.1873 48.7843 21.4831C49.1775 25.5178 49.5464 29.6304 49.9045 33.6086L50.1738 36.6642C49.9503 41.7397 49.436 47.1246 47.236 52.1787C44.3871 58.731 40.4638 62.892 35.2398 64.9013C26.1653 68.398 18.0656 67.5561 11.1614 62.4267C7.50735 59.71 5.50664 55.7211 5.21852 50.5702C4.88193 44.5828 6.83416 39.3889 11.1991 34.7006L11.3068 34.585C13.5633 32.1642 15.8844 29.6493 17.9148 26.938C18.7953 25.7572 19.3715 24.4257 19.9262 23.1373C20.2171 22.4649 20.4917 21.8301 20.8041 21.2249C20.8732 21.0939 20.9643 20.9756 21.0734 20.8753L19.3473 20.8618C17.3251 20.8457 16.4661 20.8107 15.4375 20.6628C15.2274 21.0339 15.0201 21.4051 14.8208 21.7683C14.0684 23.2006 13.2163 24.5785 12.2708 25.8917C11.3162 27.0908 10.2874 28.229 9.1903 29.2996C8.6006 29.8994 7.99204 30.5207 7.41041 31.1555C1.59948 37.5034 -0.807826 44.7872 0.255805 52.8027C0.942453 57.9994 3.21781 62.3675 7.02265 65.7862C11.4845 69.7966 17.1177 71.9377 23.7634 72.1502C24.1915 72.1636 24.6116 72.1717 25.0317 72.1717C34.8117 72.1717 42.5641 68.4572 48.0869 61.1195C52.3468 55.471 54.6356 48.7035 55.088 40.4621C55.3708 34.9535 54.9965 29.1382 53.8897 22.1502Z" fill="white"/>
<path d="M57.568 15.3397C56.087 14.1535 54.6329 12.9916 53.1115 11.8592C52.7642 11.5902 52.7507 11.5014 52.7588 11.2271C52.8127 9.23934 52.7911 7.23278 52.7588 5.29077V5.06483C52.7373 3.30841 51.7059 2.28899 49.9314 2.26478C49.3794 2.26478 48.8274 2.26478 48.2754 2.26478C47.3949 2.26478 46.5628 2.26478 45.7281 2.24058C45.3933 2.20698 45.0551 2.24292 44.7349 2.34615C44.4147 2.44937 44.1193 2.61765 43.8674 2.84039C43.6437 3.06243 43.4663 3.32646 43.3452 3.61728C43.2241 3.9081 43.1618 4.21998 43.1619 4.53494L41.794 3.47518L39.7286 1.89091C36.4974 -0.599814 35.1644 -0.615952 31.7985 1.79677C26.4292 5.64313 20.9468 9.52445 15.6421 13.2794L13.8649 14.5382C13.3264 14.9228 11.6622 16.0982 12.462 17.9515C12.8716 18.854 13.5241 19.625 14.3469 20.1786L14.3765 20.2001C14.7016 20.4068 15.0568 20.562 15.4294 20.6601C16.458 20.808 17.3143 20.843 19.3392 20.8591L21.0653 20.8726L21.0787 20.8591C21.4826 20.7444 21.8785 20.6179 22.2662 20.4799C24.959 19.5196 27.2532 18.0295 29.1866 16.6577C30.0429 16.0498 30.8965 15.4231 31.7258 14.8152C32.4205 14.3042 33.1171 13.7967 33.8154 13.2928C35.431 12.1228 35.4741 12.1228 37.1113 13.2498C37.9191 13.8092 38.7404 14.4091 39.5348 14.9874C40.7438 15.8723 41.9905 16.7841 43.2911 17.6153C44.3413 18.285 45.4453 18.8472 46.5224 19.3905C47.1741 19.7213 48.0761 20.2378 48.7116 20.5928C49.12 20.7888 49.559 20.9134 50.0095 20.9613C50.478 21.0608 51.1243 21.1415 51.7221 21.2303C52.4108 21.3366 53.1067 21.3896 53.8036 21.389C53.8036 21.3729 53.8036 21.3594 53.8036 21.3433C54.4014 21.3433 54.9776 21.3433 55.5592 21.3271C57.218 21.2787 58.4539 20.375 58.9521 18.8445C59.5472 16.9536 58.1066 15.7862 57.568 15.3397Z" fill="#190635"/>
</g>
<defs>
<clipPath id="clip0_2266_33672">
<rect width="176" height="100" fill="white"/>
</clipPath>
</defs>
</svg>
