<svg width="33" height="33" viewBox="0 0 33 33" fill="none" xmlns="http://www.w3.org/2000/svg">
<path d="M22.3988 11.9762L25.5613 15.125L12.375 15.125C12.0103 15.125 11.6606 15.2699 11.4027 15.5277C11.1449 15.7856 11 16.1353 11 16.5C11 16.8647 11.1449 17.2144 11.4027 17.4723C11.6606 17.7301 12.0103 17.875 12.375 17.875L25.5613 17.875L22.3988 21.0238C22.2699 21.1516 22.1676 21.3036 22.0978 21.4712C22.028 21.6388 21.992 21.8185 21.992 22C21.992 22.1815 22.028 22.3612 22.0978 22.5288C22.1676 22.6964 22.2699 22.8484 22.3988 22.9762C22.5266 23.1051 22.6787 23.2074 22.8462 23.2772C23.0138 23.347 23.1935 23.383 23.375 23.383C23.5565 23.383 23.7362 23.347 23.9038 23.2772C24.0714 23.2074 24.2234 23.1051 24.3513 22.9762L29.8513 17.4762C29.9764 17.3455 30.0746 17.1913 30.14 17.0225C30.2775 16.6877 30.2775 16.3123 30.14 15.9775C30.0746 15.8087 29.9764 15.6545 29.8513 15.5238L24.3513 10.0237C24.2231 9.89555 24.0709 9.79385 23.9033 9.72447C23.7358 9.65509 23.5563 9.61937 23.375 9.61937C23.1937 9.61937 23.0142 9.65509 22.8467 9.72447C22.6792 9.79385 22.527 9.89555 22.3988 10.0237C22.2706 10.152 22.1689 10.3042 22.0995 10.4717C22.0301 10.6392 21.9944 10.8187 21.9944 11C21.9944 11.1813 22.0301 11.3608 22.0995 11.5283C22.1689 11.6958 22.2706 11.848 22.3988 11.9762ZM16.5 28.875C16.5 28.5103 16.3551 28.1606 16.0973 27.9027C15.8394 27.6449 15.4897 27.5 15.125 27.5H6.875C6.51033 27.5 6.16059 27.3551 5.90273 27.0973C5.64487 26.8394 5.5 26.4897 5.5 26.125L5.5 6.875C5.5 6.51033 5.64487 6.16059 5.90273 5.90273C6.16059 5.64487 6.51033 5.5 6.875 5.5L15.125 5.5C15.4897 5.5 15.8394 5.35513 16.0973 5.09727C16.3551 4.83941 16.5 4.48967 16.5 4.125C16.5 3.76033 16.3551 3.41059 16.0973 3.15273C15.8394 2.89487 15.4897 2.75 15.125 2.75L6.875 2.75C5.78099 2.75 4.73178 3.1846 3.95819 3.95818C3.1846 4.73177 2.75 5.78098 2.75 6.875L2.75 26.125C2.75 27.219 3.1846 28.2682 3.95819 29.0418C4.73178 29.8154 5.78099 30.25 6.875 30.25H15.125C15.4897 30.25 15.8394 30.1051 16.0973 29.8473C16.3551 29.5894 16.5 29.2397 16.5 28.875Z" fill="#CDCDCD"/>
</svg>
