<svg width="49" height="49" viewBox="0 0 49 49" fill="none" xmlns="http://www.w3.org/2000/svg">
<path d="M24.4757 14.3107C25.2668 14.3107 26.0402 14.0761 26.698 13.6366C27.3558 13.197 27.8685 12.5723 28.1712 11.8414C28.474 11.1105 28.5532 10.3062 28.3989 9.53032C28.2445 8.7544 27.8635 8.04167 27.3041 7.48226C26.7447 6.92285 26.032 6.54189 25.2561 6.38754C24.4801 6.2332 23.6759 6.31242 22.945 6.61517C22.2141 6.91792 21.5894 7.43061 21.1498 8.0884C20.7103 8.7462 20.4757 9.51956 20.4757 10.3107C20.4757 11.3716 20.8971 12.389 21.6473 13.1391C22.3974 13.8893 23.4148 14.3107 24.4757 14.3107ZM24.4757 34.3107C23.6846 34.3107 22.9112 34.5453 22.2534 34.9848C21.5956 35.4243 21.0829 36.049 20.7802 36.7799C20.4774 37.5109 20.3982 38.3151 20.5526 39.091C20.7069 39.867 21.0879 40.5797 21.6473 41.1391C22.2067 41.6985 22.9194 42.0795 23.6953 42.2338C24.4713 42.3882 25.2755 42.3089 26.0064 42.0062C26.7373 41.7034 27.3621 41.1908 27.8016 40.533C28.2411 39.8752 28.4757 39.1018 28.4757 38.3107C28.4757 37.2498 28.0543 36.2324 27.3041 35.4823C26.554 34.7321 25.5366 34.3107 24.4757 34.3107ZM24.4757 20.3107C23.6846 20.3107 22.9112 20.5453 22.2534 20.9848C21.5956 21.4243 21.0829 22.049 20.7802 22.78C20.4774 23.5109 20.3982 24.3151 20.5526 25.091C20.7069 25.867 21.0879 26.5797 21.6473 27.1391C22.2067 27.6985 22.9194 28.0795 23.6953 28.2338C24.4713 28.3882 25.2755 28.309 26.0064 28.0062C26.7373 27.7035 27.3621 27.1908 27.8016 26.533C28.2411 25.8752 28.4757 25.1018 28.4757 24.3107C28.4757 23.2498 28.0543 22.2324 27.3041 21.4823C26.554 20.7321 25.5366 20.3107 24.4757 20.3107Z" fill="#935757"/>
</svg>
