<svg width="57" height="57" viewBox="0 0 57 57" fill="none" xmlns="http://www.w3.org/2000/svg">
<path d="M54.0669 39.8531H14.2281C13.4734 39.8531 12.7496 39.5532 12.216 39.0194C11.6823 38.4855 11.3825 37.7615 11.3825 37.0065C11.3825 36.2515 11.6823 35.5274 12.216 34.9936C12.7496 34.4597 13.4734 34.1598 14.2281 34.1598H43.9365C45.8392 34.1599 47.6875 33.5241 49.1877 32.3534C50.688 31.1827 51.7543 29.5441 52.2173 27.6979L56.9126 9.22315C57.0192 8.80301 57.0284 8.36407 56.9396 7.9398C56.8509 7.51553 56.6664 7.11715 56.4004 6.77503C56.1236 6.42413 55.7682 6.14335 55.3628 5.95542C54.9574 5.76749 54.5135 5.6777 54.0669 5.6933H13.5452C12.9581 4.03214 11.8718 2.5933 10.4351 1.57402C8.99845 0.554751 7.28181 0.00495178 5.52052 0H2.84563C2.09092 0 1.36712 0.299914 0.833465 0.833765C0.299806 1.36762 0 2.09167 0 2.84665C0 3.60163 0.299806 4.32569 0.833465 4.85954C1.36712 5.39339 2.09092 5.6933 2.84563 5.6933H5.52052C6.17056 5.67436 6.80748 5.87871 7.32523 6.27235C7.84299 6.66599 8.21035 7.22515 8.36615 7.85676L8.53689 9.22315L13.4598 28.4665C11.1957 28.5684 9.06478 29.5659 7.53585 31.2396C6.00692 32.9132 5.20521 35.1258 5.3071 37.3908C5.40898 39.6557 6.40612 41.7874 8.07914 43.3169C9.75216 44.8464 11.964 45.6483 14.2281 45.5464H14.7404C14.2724 46.8363 14.122 48.2201 14.3019 49.5804C14.4819 50.9408 14.9869 52.2378 15.7742 53.3615C16.5615 54.4852 17.6079 55.4026 18.8248 56.036C20.0417 56.6693 21.3933 57 22.765 57C24.1368 57 25.4883 56.6693 26.7052 56.036C27.9221 55.4026 28.9685 54.4852 29.7558 53.3615C30.5431 52.2378 31.0482 50.9408 31.2281 49.5804C31.4081 48.2201 31.2577 46.8363 30.7897 45.5464H37.5054C37.0374 46.8363 36.887 48.2201 37.067 49.5804C37.2469 50.9408 37.7519 52.2378 38.5393 53.3615C39.3266 54.4852 40.373 55.4026 41.5899 56.036C42.8068 56.6693 44.1583 57 45.5301 57C46.9018 57 48.2534 56.6693 49.4703 56.036C50.6871 55.4026 51.7336 54.4852 52.5209 53.3615C53.3082 52.2378 53.8132 50.9408 53.9932 49.5804C54.1731 48.2201 54.0227 46.8363 53.5547 45.5464H54.0669C54.8217 45.5464 55.5455 45.2465 56.0791 44.7127C56.6128 44.1788 56.9126 43.4548 56.9126 42.6998C56.9126 41.9448 56.6128 41.2207 56.0791 40.6869C55.5455 40.153 54.8217 39.8531 54.0669 39.8531ZM50.4245 11.3866L46.6968 26.3031C46.541 26.9347 46.1736 27.4938 45.6559 27.8875C45.1381 28.2811 44.5012 28.4855 43.8511 28.4665H19.2934L15.0249 11.3866H50.4245ZM22.765 51.2397C22.2022 51.2397 21.652 51.0728 21.1841 50.76C20.7161 50.4472 20.3514 50.0026 20.136 49.4824C19.9206 48.9623 19.8643 48.3899 19.9741 47.8377C20.0839 47.2855 20.3549 46.7783 20.7529 46.3802C21.1508 45.9821 21.6579 45.711 22.2099 45.6011C22.7619 45.4913 23.334 45.5477 23.854 45.7631C24.374 45.9786 24.8184 46.3434 25.1311 46.8116C25.4438 47.2797 25.6107 47.8301 25.6107 48.3931C25.6107 49.1481 25.3109 49.8721 24.7772 50.406C24.2435 50.9398 23.5197 51.2397 22.765 51.2397ZM45.5301 51.2397C44.9673 51.2397 44.4171 51.0728 43.9491 50.76C43.4812 50.4472 43.1164 50.0026 42.901 49.4824C42.6857 48.9623 42.6293 48.3899 42.7391 47.8377C42.8489 47.2855 43.1199 46.7783 43.5179 46.3802C43.9159 45.9821 44.4229 45.711 44.9749 45.6011C45.5269 45.4913 46.0991 45.5477 46.619 45.7631C47.139 45.9786 47.5834 46.3434 47.8961 46.8116C48.2088 47.2797 48.3757 47.8301 48.3757 48.3931C48.3757 49.1481 48.0759 49.8721 47.5422 50.406C47.0086 50.9398 46.2848 51.2397 45.5301 51.2397Z" fill="#5F27CD"/>
</svg>
