<svg width="33" height="32" viewBox="0 0 33 32" fill="none" xmlns="http://www.w3.org/2000/svg">
<path d="M16.9125 16.2933C17.6462 15.6775 18.2346 14.9158 18.638 14.06C19.0413 13.2042 19.25 12.2743 19.25 11.3333C19.25 9.56521 18.5257 7.86952 17.2364 6.61928C15.947 5.36904 14.1984 4.66666 12.375 4.66666C10.5516 4.66666 8.80295 5.36904 7.51364 6.61928C6.22433 7.86952 5.5 9.56521 5.5 11.3333C5.49999 12.2743 5.70873 13.2042 6.11205 14.06C6.51537 14.9158 7.10383 15.6775 7.8375 16.2933C5.91269 17.1385 4.27964 18.5034 3.1336 20.2247C1.98756 21.9461 1.37702 23.9511 1.375 26C1.375 26.3536 1.51987 26.6928 1.77773 26.9428C2.03559 27.1928 2.38533 27.3333 2.75 27.3333C3.11467 27.3333 3.46441 27.1928 3.72227 26.9428C3.98013 26.6928 4.125 26.3536 4.125 26C4.125 23.8783 4.99419 21.8434 6.54137 20.3431C8.08854 18.8428 10.187 18 12.375 18C14.563 18 16.6615 18.8428 18.2086 20.3431C19.7558 21.8434 20.625 23.8783 20.625 26C20.625 26.3536 20.7699 26.6928 21.0277 26.9428C21.2856 27.1928 21.6353 27.3333 22 27.3333C22.3647 27.3333 22.7144 27.1928 22.9723 26.9428C23.2301 26.6928 23.375 26.3536 23.375 26C23.373 23.9511 22.7624 21.9461 21.6164 20.2247C20.4704 18.5034 18.8373 17.1385 16.9125 16.2933V16.2933ZM12.375 15.3333C11.5592 15.3333 10.7616 15.0987 10.0833 14.6592C9.40492 14.2197 8.87621 13.595 8.564 12.8641C8.25179 12.1332 8.1701 11.3289 8.32926 10.553C8.48843 9.77704 8.88129 9.06431 9.45818 8.5049C10.0351 7.94549 10.7701 7.56452 11.5703 7.41018C12.3704 7.25584 13.1998 7.33505 13.9536 7.63781C14.7073 7.94056 15.3516 8.45325 15.8048 9.11104C16.2581 9.76884 16.5 10.5422 16.5 11.3333C16.5 12.3942 16.0654 13.4116 15.2918 14.1618C14.5182 14.9119 13.469 15.3333 12.375 15.3333ZM25.7675 15.76C26.6475 14.7991 27.2223 13.6121 27.4227 12.3418C27.6232 11.0715 27.4408 9.77209 26.8974 8.59999C26.3541 7.42789 25.473 6.43305 24.3601 5.73522C23.2473 5.03739 21.9502 4.66631 20.625 4.66666C20.2603 4.66666 19.9106 4.80713 19.6527 5.05718C19.3949 5.30723 19.25 5.64637 19.25 5.99999C19.25 6.35361 19.3949 6.69275 19.6527 6.9428C19.9106 7.19285 20.2603 7.33332 20.625 7.33332C21.719 7.33332 22.7682 7.75475 23.5418 8.5049C24.3154 9.25504 24.75 10.2725 24.75 11.3333C24.7481 12.0336 24.5565 12.7212 24.1946 13.3272C23.8326 13.9332 23.313 14.4365 22.6875 14.7867C22.4836 14.9007 22.3134 15.0635 22.193 15.2596C22.0726 15.4557 22.0062 15.6785 22 15.9067C21.9942 16.133 22.048 16.3571 22.1563 16.5577C22.2645 16.7583 22.4237 16.9289 22.6188 17.0533L23.155 17.4L23.3337 17.4933C24.9912 18.2556 26.3894 19.4613 27.3638 20.9684C28.3383 22.4755 28.8483 24.2212 28.8337 26C28.8337 26.3536 28.9786 26.6928 29.2365 26.9428C29.4943 27.1928 29.8441 27.3333 30.2087 27.3333C30.5734 27.3333 30.9232 27.1928 31.181 26.9428C31.4389 26.6928 31.5837 26.3536 31.5837 26C31.595 23.9539 31.0665 21.939 30.0485 20.1467C29.0305 18.3545 27.5568 16.8444 25.7675 15.76V15.76Z" fill="#CDCDCD"/>
</svg>
