<svg width="27" height="28" viewBox="0 0 27 28" fill="none" xmlns="http://www.w3.org/2000/svg">
<path d="M25.6107 19.577H6.73965C6.38215 19.577 6.0393 19.4296 5.78652 19.1674C5.53373 18.9052 5.39172 18.5495 5.39172 18.1786C5.39172 17.8078 5.53373 17.4521 5.78652 17.1898C6.0393 16.9276 6.38215 16.7803 6.73965 16.7803H20.812C21.7133 16.7803 22.5888 16.468 23.2995 15.8929C24.0101 15.3178 24.5152 14.5129 24.7345 13.606L26.9586 4.53067C27.0091 4.32428 27.0135 4.10866 26.9714 3.90025C26.9294 3.69184 26.842 3.49614 26.716 3.32809C26.5849 3.15571 26.4165 3.01779 26.2245 2.92547C26.0324 2.83315 25.8222 2.78904 25.6107 2.79671H6.41614C6.13805 1.9807 5.62347 1.2739 4.94294 0.773204C4.26242 0.272509 3.44928 0.00243245 2.61498 0H1.34793C0.990436 0 0.647585 0.147326 0.394799 0.409569C0.142014 0.671811 0 1.02749 0 1.39836C0 1.76922 0.142014 2.1249 0.394799 2.38714C0.647585 2.64938 0.990436 2.79671 1.34793 2.79671H2.61498C2.9229 2.7874 3.22459 2.88779 3.46985 3.08115C3.7151 3.27452 3.88911 3.5492 3.96291 3.85946L4.04379 4.53067L6.37571 13.9836C5.30323 14.0336 4.29385 14.5236 3.56961 15.3457C2.84538 16.1679 2.46563 17.2548 2.51389 18.3674C2.56215 19.48 3.03448 20.5271 3.82696 21.2785C4.61944 22.0298 5.66717 22.4237 6.73965 22.3737H6.98227C6.76059 23.0073 6.68935 23.687 6.7746 24.3553C6.85985 25.0236 7.09907 25.6607 7.472 26.2127C7.84494 26.7647 8.3406 27.2153 8.91703 27.5264C9.49345 27.8376 10.1337 28 10.7834 28C11.4332 28 12.0734 27.8376 12.6498 27.5264C13.2263 27.2153 13.7219 26.7647 14.0949 26.2127C14.4678 25.6607 14.707 25.0236 14.7923 24.3553C14.8775 23.687 14.8063 23.0073 14.5846 22.3737H17.7657C17.544 23.0073 17.4728 23.687 17.558 24.3553C17.6433 25.0236 17.8825 25.6607 18.2554 26.2127C18.6284 26.7647 19.124 27.2153 19.7005 27.5264C20.2769 27.8376 20.9171 28 21.5669 28C22.2166 28 22.8569 27.8376 23.4333 27.5264C24.0097 27.2153 24.5054 26.7647 24.8783 26.2127C25.2512 25.6607 25.4905 25.0236 25.5757 24.3553C25.661 23.687 25.5897 23.0073 25.368 22.3737H25.6107C25.9682 22.3737 26.311 22.2264 26.5638 21.9641C26.8166 21.7019 26.9586 21.3462 26.9586 20.9753C26.9586 20.6045 26.8166 20.2488 26.5638 19.9865C26.311 19.7243 25.9682 19.577 25.6107 19.577ZM23.8853 5.59342L22.1195 12.9208C22.0457 13.2311 21.8717 13.5057 21.6265 13.6991C21.3812 13.8925 21.0795 13.9929 20.7716 13.9836H9.13896L7.11707 5.59342H23.8853ZM10.7834 25.1704C10.5168 25.1704 10.2562 25.0884 10.0346 24.9347C9.8129 24.7811 9.64013 24.5627 9.53811 24.3072C9.43609 24.0516 9.4094 23.7705 9.46141 23.4992C9.51342 23.228 9.64179 22.9788 9.83031 22.7833C10.0188 22.5877 10.259 22.4545 10.5205 22.4006C10.7819 22.3466 11.053 22.3743 11.2993 22.4801C11.5456 22.586 11.7561 22.7652 11.9042 22.9952C12.0523 23.2251 12.1314 23.4955 12.1314 23.772C12.1314 24.1429 11.9894 24.4986 11.7366 24.7608C11.4838 25.0231 11.1409 25.1704 10.7834 25.1704ZM21.5669 25.1704C21.3003 25.1704 21.0397 25.0884 20.818 24.9347C20.5963 24.7811 20.4236 24.5627 20.3215 24.3072C20.2195 24.0516 20.1928 23.7705 20.2448 23.4992C20.2969 23.228 20.4252 22.9788 20.6137 22.7833C20.8022 22.5877 21.0424 22.4545 21.3039 22.4006C21.5654 22.3466 21.8364 22.3743 22.0827 22.4801C22.329 22.586 22.5395 22.7652 22.6876 22.9952C22.8357 23.2251 22.9148 23.4955 22.9148 23.772C22.9148 24.1429 22.7728 24.4986 22.52 24.7608C22.2672 25.0231 21.9244 25.1704 21.5669 25.1704Z" fill="#CDCDCD"/>
</svg>
