<svg width="449" height="256" viewBox="0 0 449 256" fill="none" xmlns="http://www.w3.org/2000/svg">
<path d="M267.172 117.308C267.172 121.958 267.247 126.615 267.22 131.266C267.535 137.439 264.965 142.206 260.551 146.17C252.621 153.29 243.079 156.884 232.73 158.468C216.348 160.979 200.905 158.358 187.149 148.763C173.543 139.284 166.627 125.717 164.53 109.502C162.679 95.0988 165.112 81.381 172.988 69.1448C185.326 49.9399 203.277 41.2085 226.101 42.6831C236.335 43.369 245.705 46.4624 253.957 52.6834C254.464 53.0675 254.965 53.4653 255.451 53.8769C263.156 60.4957 261.161 70.9281 251.517 74.5839C248.549 75.7019 246.034 74.7005 243.546 73.1572C234.135 67.3889 224.011 66.4081 213.592 69.5014C200.844 73.2875 194.291 82.499 192.344 95.2977C191.128 102.438 191.911 109.776 194.606 116.499C199.164 127.658 207.821 133.371 219.432 134.784C226.101 135.594 232.695 134.915 238.939 132.041C240.797 131.183 241.77 130.1 241.681 127.925C241.503 124.29 241.558 120.628 241.633 116.951C241.633 115.154 241.023 114.564 239.207 114.647C235.389 114.832 231.557 114.859 227.733 114.839C226.414 114.856 225.105 114.612 223.881 114.121C222.656 113.63 221.541 112.902 220.599 111.979C219.657 111.055 218.907 109.954 218.391 108.739C217.876 107.525 217.605 106.22 217.595 104.9C217.307 95.9836 221.173 92.0878 230.214 92.1358C239.125 92.1838 248.083 92.1358 257.014 92.1769C264.252 92.1769 267.241 95.2223 267.247 102.513L267.172 117.308Z" fill="#5F328E"/>
<path d="M339.744 81.3104C343.219 74.0948 352.28 71.4747 359.326 75.6175C362.561 77.5174 363.98 80.4804 363.987 84.0539C364.035 104.946 364.062 125.838 363.987 146.724C363.946 153.884 360.56 157.149 353.404 157.561C352.492 157.616 351.581 157.616 350.662 157.609C343.753 157.609 341.149 155.812 338.729 149.378C337.92 150.016 337.146 150.613 336.385 151.237C323.458 161.854 302.032 161.333 289.858 150.016C283.004 143.644 279.632 135.468 278.522 126.373C277.24 115.927 277.911 105.639 282.031 95.7689C287.603 82.4284 297.713 75.2745 311.895 73.3609C321.799 72.0303 330.737 73.7519 338.338 80.6107C338.616 80.8461 338.919 81.0486 339.243 81.2143C339.403 81.2757 339.572 81.3082 339.744 81.3104ZM339.689 114.741C339.689 113.739 339.73 112.738 339.689 111.736C339.305 102.964 333.52 96.0021 325.165 94.2462C321.023 93.4234 316.725 94.0191 312.963 95.9377C309.2 97.8562 306.193 100.986 304.424 104.823C302.1 109.837 301.682 115.111 302.285 120.598C302.589 123.554 303.612 126.389 305.265 128.857C306.918 131.325 309.151 133.35 311.767 134.755C314.383 136.159 317.304 136.9 320.273 136.914C323.242 136.927 326.169 136.211 328.797 134.83C337.016 130.605 339.894 123.479 339.689 114.741Z" fill="#5F328E"/>
<path d="M402.934 118.44C402.934 128.845 403.071 139.25 402.893 149.648C402.756 157.323 402.009 164.937 398.266 171.905C392.235 183.168 377.368 189.238 365.188 185.369C360.061 183.744 357.463 180.397 357.347 175.081C357.309 173.882 357.64 172.7 358.294 171.694C358.949 170.688 359.895 169.908 361.007 169.457C362.411 168.81 363.92 168.422 365.462 168.311C373.495 167.715 377.964 163.62 378.485 155.396C378.965 147.309 378.951 139.182 378.985 131.068C379.04 116.376 378.985 101.691 378.985 86.9992C378.93 85.2735 379.105 83.5481 379.506 81.8687C380.548 78.1924 383.413 76.265 387.286 76.265C389.562 76.265 391.837 76.265 394.14 76.217C399.802 76.0524 403.051 79.2418 403.051 85.0444C403.051 96.1787 403.051 107.308 403.051 118.434L402.934 118.44Z" fill="#5F328E"/>
<path d="M375.659 54.892C375.707 46.7024 382.013 40.4883 390.314 40.4883C398.936 40.4883 405.345 46.9151 405.277 55.5093C405.215 63.4587 398.566 69.9129 390.437 69.9129C388.474 69.9234 386.528 69.5404 384.715 68.7863C382.902 68.0322 381.259 66.9224 379.881 65.5223C378.504 64.1222 377.421 62.4603 376.696 60.6346C375.971 58.8088 375.618 56.8562 375.659 54.892Z" fill="#5F328E"/>
<path d="M444.478 116.655C444.478 126.943 444.478 137.266 444.478 147.575C444.478 153.7 442.421 156.135 436.348 157.177C434.2 157.555 432.014 157.677 429.837 157.541C423.935 157.129 420.193 153.062 420.179 147.06C420.138 126.634 420.138 106.206 420.179 85.776C420.179 79.2052 423.51 76.0844 429.995 76.2284C431.907 76.2696 433.819 76.2764 435.732 76.2284C441.14 76.0706 444.464 79.1709 444.491 84.6443C444.546 95.3167 444.491 105.989 444.491 116.655H444.478Z" fill="#5F328E"/>
<path d="M447.349 55.243C447.357 57.1862 446.978 59.1115 446.233 60.9058C445.487 62.7002 444.391 64.3276 443.009 65.6923C441.627 67.057 439.986 68.1317 438.183 68.8531C436.38 69.5746 434.451 69.9284 432.509 69.8936C428.584 69.8125 424.851 68.1797 422.125 65.3521C419.4 62.5245 417.904 58.7321 417.965 54.804C418 52.8646 418.419 50.9514 419.198 49.1751C419.977 47.3987 421.1 45.7945 422.502 44.4551C423.905 43.1157 425.558 42.0678 427.368 41.3718C429.177 40.6758 431.106 40.3457 433.044 40.4004C441.317 40.5924 447.438 46.9438 447.349 55.243Z" fill="#5F328E"/>
<path d="M74.0737 218.593C73.6976 218.164 73.2285 217.826 72.7023 217.606C72.176 217.386 71.6065 217.29 71.0372 217.324H65.5538V202.522C65.5892 201.906 65.4778 201.289 65.2287 200.724C64.9797 200.159 64.6002 199.661 64.1213 199.271C63.2644 198.57 62.1916 198.188 61.0849 198.188C59.9766 198.184 58.9013 198.564 58.0416 199.264C57.5644 199.655 57.1865 200.154 56.9387 200.719C56.6909 201.284 56.5803 201.899 56.6159 202.515V250.37C56.5808 250.985 56.6917 251.6 56.9395 252.163C57.1873 252.727 57.565 253.224 58.0416 253.614C58.8991 254.317 59.9732 254.701 61.0814 254.701C62.1897 254.701 63.2638 254.317 64.1213 253.614C64.6 253.226 64.9796 252.729 65.2287 252.165C65.4778 251.601 65.5892 250.986 65.5538 250.37V224.944H71.0372C71.6072 224.979 72.1776 224.882 72.7041 224.661C73.2307 224.439 73.6993 224.1 74.0737 223.668C74.6797 222.962 75.013 222.062 75.013 221.131C75.013 220.199 74.6797 219.299 74.0737 218.593Z" fill="#5F328E"/>
<path d="M47.9256 204.499C46.9789 203.623 45.8643 202.949 44.6493 202.517C43.3558 202.056 41.992 201.824 40.619 201.831H26.3965C25.806 201.787 25.2134 201.88 24.6652 202.104C24.1169 202.328 23.628 202.676 23.2366 203.12C22.6398 203.813 22.3071 204.695 22.2976 205.61C22.2841 206.585 22.6169 207.533 23.2366 208.285C23.629 208.728 24.1181 209.075 24.6661 209.299C25.2141 209.523 25.8062 209.617 26.3965 209.575H39.8719C40.4211 209.552 40.959 209.735 41.3798 210.089C41.593 210.309 41.7557 210.572 41.8563 210.861C41.957 211.15 41.9932 211.458 41.9624 211.763V215.192C41.9571 217.035 41.4627 218.843 40.5299 220.432C39.4851 222.204 38.1425 223.782 36.5613 225.096C34.7442 226.613 32.7622 227.919 30.6529 228.992C28.3921 230.167 26.0376 231.151 23.6136 231.935C22.74 232.151 21.9866 232.703 21.5162 233.471C21.1442 234.093 20.9432 234.803 20.9336 235.529C20.9312 236.102 21.0468 236.669 21.2732 237.195C21.4996 237.722 21.832 238.196 22.2497 238.588C22.575 238.913 22.9623 239.169 23.3886 239.341C23.8148 239.513 24.2713 239.597 24.7309 239.589C25.1948 239.586 25.656 239.519 26.1017 239.39C29.516 238.402 32.8119 237.042 35.9307 235.337C38.775 233.797 41.4141 231.905 43.7857 229.705C45.9099 227.737 47.6791 225.417 49.0155 222.847C50.2564 220.471 50.9099 217.832 50.9209 215.151V211.797C50.9441 210.359 50.676 208.931 50.1327 207.599C49.6216 206.423 48.8698 205.367 47.9256 204.499Z" fill="#5F328E"/>
<path d="M114.047 225.432H110.62C110.181 225.432 109.989 225.432 109.989 224.746V212.173C110.017 211.663 109.924 211.154 109.718 210.687C109.512 210.22 109.199 209.808 108.804 209.485C108.093 208.908 107.206 208.594 106.291 208.594C105.377 208.594 104.49 208.908 103.779 209.485C103.383 209.805 103.068 210.216 102.86 210.682C102.653 211.148 102.559 211.657 102.587 212.166V224.828C102.587 227.037 103.169 228.758 104.307 229.938C105.445 231.118 107.309 231.762 109.791 231.762H114.074C114.551 231.791 115.028 231.709 115.467 231.524C115.907 231.338 116.298 231.054 116.61 230.692C117.111 230.109 117.386 229.366 117.386 228.597C117.386 227.828 117.111 227.085 116.61 226.502C116.295 226.137 115.899 225.851 115.454 225.665C115.01 225.48 114.528 225.4 114.047 225.432Z" fill="#5F328E"/>
<path d="M106.782 234.121C105.545 232.987 104.106 232.098 102.539 231.501C101.297 231.029 99.9964 230.731 98.6732 230.616C99.209 230.413 99.6819 230.072 100.044 229.628C100.619 228.984 100.941 228.153 100.949 227.289C100.943 226.749 100.796 226.219 100.524 225.753C100.193 225.206 99.7191 224.76 99.153 224.463C97.8851 223.819 96.6862 223.047 95.5751 222.159C94.731 221.478 93.9777 220.692 93.3338 219.82C92.8189 219.121 92.4229 218.343 92.1617 217.515C92.0156 217.026 91.9079 216.526 91.8395 216.02H97.0145C97.4941 216.051 97.9746 215.974 98.4206 215.795C98.8666 215.616 99.2668 215.339 99.5917 214.984C100.092 214.415 100.372 213.685 100.38 212.927C100.383 212.142 100.109 211.381 99.6054 210.78C99.2839 210.415 98.8832 210.129 98.4341 209.944C97.9849 209.758 97.4993 209.678 97.0145 209.71H78.7205C78.244 209.681 77.7674 209.763 77.3275 209.948C76.8877 210.134 76.4965 210.418 76.1844 210.78C75.6757 211.379 75.3985 212.141 75.4031 212.927C75.4012 213.354 75.4873 213.777 75.6559 214.17C75.8246 214.563 76.0722 214.916 76.3834 215.209C76.6946 215.502 77.0627 215.727 77.4648 215.872C77.8669 216.016 78.2943 216.076 78.7205 216.047H84.06C83.9932 216.6 83.8715 217.145 83.6967 217.673C83.3745 218.615 82.9124 219.503 82.3258 220.307C81.6194 221.295 80.7979 222.195 79.8789 222.989C78.7412 223.963 77.508 224.82 76.1982 225.547C75.6332 225.839 75.159 226.28 74.8273 226.823C74.5539 227.289 74.4074 227.819 74.4023 228.359C74.4109 229.228 74.749 230.062 75.3482 230.691C75.6668 231.057 76.0611 231.349 76.5038 231.547C76.9465 231.745 77.4269 231.843 77.9117 231.837C78.6092 231.846 79.2931 231.643 79.872 231.254C81.62 230.174 83.2752 228.951 84.8208 227.598C85.9844 226.584 87.0409 225.453 87.9737 224.223C88.8315 225.271 89.7887 226.234 90.832 227.097C92.2853 228.291 93.8429 229.351 95.486 230.266C95.7047 230.399 95.934 230.513 96.1714 230.609C94.6726 230.686 93.1949 230.996 91.7915 231.528C90.2276 232.122 88.7937 233.014 87.5693 234.155C86.404 235.257 85.4717 236.582 84.8276 238.051C83.831 240.296 83.5595 242.797 84.051 245.205C84.5424 247.612 85.7724 249.806 87.5693 251.48C88.7987 252.608 90.2317 253.49 91.7915 254.08C93.5018 254.726 95.3168 255.049 97.1447 255.033C98.9568 255.047 100.756 254.723 102.45 254.08C104.013 253.487 105.452 252.608 106.693 251.487C107.889 250.383 108.844 249.042 109.497 247.55C110.149 246.058 110.487 244.447 110.487 242.818C110.487 241.189 110.149 239.578 109.497 238.085C108.844 236.593 107.889 235.253 106.693 234.148L106.782 234.121ZM97.2612 236.864C98.0614 236.857 98.8552 237.007 99.5985 237.303C100.305 237.585 100.948 238.007 101.489 238.543C102.029 239.079 102.456 239.719 102.745 240.424C103.357 241.935 103.357 243.625 102.745 245.136C102.458 245.833 102.031 246.463 101.49 246.988C100.944 247.51 100.305 247.924 99.6054 248.209C98.0969 248.792 96.4255 248.792 94.9171 248.209C94.2155 247.924 93.5737 247.51 93.0253 246.988C92.4869 246.461 92.0603 245.832 91.771 245.136C91.1586 243.625 91.1586 241.935 91.771 240.424C92.0618 239.721 92.4899 239.082 93.0301 238.547C93.5702 238.011 94.2118 237.588 94.9171 237.303C95.6536 237.019 96.4375 236.877 97.227 236.885L97.2612 236.864Z" fill="#5F328E"/>
<path d="M153.001 213.564C152.246 212.853 151.352 212.307 150.375 211.959C149.342 211.59 148.251 211.406 147.154 211.417H136.084C135.649 211.381 135.212 211.435 134.799 211.577C134.386 211.718 134.007 211.943 133.685 212.238C133.363 212.533 133.106 212.892 132.929 213.291C132.752 213.69 132.659 214.122 132.657 214.558C132.654 215.362 132.933 216.141 133.445 216.76C133.772 217.132 134.18 217.423 134.638 217.611C135.096 217.799 135.591 217.879 136.084 217.844H146.578C146.774 217.828 146.971 217.858 147.154 217.93C147.337 218.003 147.501 218.116 147.633 218.262C147.766 218.408 147.863 218.582 147.918 218.771C147.972 218.96 147.983 219.159 147.949 219.353V222.007C147.944 223.409 147.568 224.784 146.859 225.992C146.06 227.351 145.03 228.56 143.816 229.566C142.416 230.734 140.889 231.742 139.265 232.57C137.52 233.477 135.701 234.237 133.829 234.84C133.096 235.026 132.463 235.491 132.068 236.136C131.755 236.651 131.589 237.242 131.588 237.844C131.586 238.316 131.681 238.783 131.867 239.216C132.054 239.649 132.327 240.039 132.671 240.362C132.947 240.636 133.276 240.852 133.638 240.997C133.999 241.141 134.386 241.212 134.775 241.205C135.151 241.202 135.525 241.147 135.886 241.041C138.559 240.267 141.14 239.204 143.583 237.872C145.815 236.662 147.887 235.178 149.752 233.455C151.419 231.913 152.81 230.096 153.864 228.084C154.842 226.207 155.357 224.124 155.365 222.007V219.401C155.39 218.263 155.185 217.131 154.762 216.074C154.36 215.122 153.759 214.266 153.001 213.564Z" fill="#5F328E"/>
<path d="M173.372 224.561C173.059 224.198 172.667 223.912 172.226 223.725C171.785 223.538 171.307 223.456 170.829 223.484H166.785V212.174C166.812 211.664 166.72 211.155 166.514 210.688C166.307 210.221 165.994 209.809 165.599 209.485C164.887 208.909 163.999 208.594 163.083 208.594C162.168 208.594 161.28 208.909 160.568 209.485C160.172 209.806 159.858 210.217 159.652 210.683C159.446 211.15 159.353 211.658 159.382 212.167V249.397C159.355 249.906 159.448 250.414 159.654 250.88C159.86 251.346 160.173 251.757 160.568 252.079C161.28 252.652 162.166 252.964 163.08 252.964C163.994 252.964 164.88 252.652 165.592 252.079C165.988 251.757 166.302 251.347 166.509 250.881C166.716 250.415 166.811 249.907 166.785 249.397V229.795H170.829C171.306 229.822 171.783 229.74 172.224 229.555C172.665 229.369 173.057 229.085 173.372 228.725C173.872 228.141 174.147 227.398 174.147 226.629C174.147 225.861 173.872 225.117 173.372 224.534V224.561Z" fill="#5F328E"/>
<path d="M193.686 211.438H189.259C188.431 211.4 187.619 211.669 186.976 212.192C186.853 212.302 186.736 212.419 186.627 212.542C185.334 211.759 183.839 211.375 182.329 211.438H178.141C177.705 211.407 177.267 211.466 176.855 211.611C176.442 211.756 176.064 211.983 175.742 212.28C175.421 212.577 175.164 212.937 174.987 213.337C174.811 213.737 174.717 214.169 174.714 214.607C174.714 215.39 175.005 216.145 175.53 216.726C175.856 217.082 176.258 217.361 176.707 217.542C177.155 217.722 177.638 217.8 178.12 217.769H181.157C181.52 217.769 181.842 217.769 181.842 218.66V220.272C181.875 222.82 181.201 225.327 179.896 227.515C178.57 229.698 176.874 231.634 174.885 233.235C174.505 233.509 174.195 233.87 173.982 234.287C173.768 234.705 173.657 235.167 173.658 235.636C173.651 236.47 173.968 237.275 174.543 237.879C174.842 238.214 175.21 238.48 175.622 238.66C176.033 238.84 176.479 238.929 176.928 238.921C177.7 238.926 178.451 238.67 179.059 238.194C180.52 237.108 181.882 235.897 183.131 234.573C184.34 233.287 185.404 231.873 186.304 230.355C187.181 228.855 187.871 227.254 188.361 225.588C188.869 223.862 189.125 222.071 189.122 220.272V218.091C189.122 217.981 189.122 217.878 189.122 217.769H192.46C192.823 217.769 193.145 217.769 193.145 218.66V221.219C193.145 226.819 190.927 232.191 186.976 236.157C186.678 236.438 186.441 236.777 186.279 237.154C186.117 237.53 186.035 237.936 186.037 238.345C186.037 239.199 186.375 240.017 186.976 240.622C187.278 240.95 187.643 241.212 188.05 241.392C188.457 241.573 188.896 241.668 189.341 241.673C189.786 241.677 190.227 241.591 190.637 241.418C191.047 241.246 191.418 240.991 191.726 240.67C194.336 238.12 196.483 235.135 198.073 231.85C199.646 228.526 200.447 224.889 200.417 221.212V218.084C200.417 215.807 199.821 214.106 198.628 213.036C197.239 211.904 195.475 211.334 193.686 211.438Z" fill="#5F328E"/>
<path d="M216.499 225.939C216.493 225.171 216.216 224.43 215.717 223.847C215.405 223.486 215.014 223.201 214.574 223.016C214.134 222.83 213.658 222.748 213.181 222.777H209.857V212.173C209.884 211.663 209.79 211.153 209.583 210.686C209.375 210.219 209.061 209.807 208.664 209.485C207.954 208.908 207.067 208.594 206.152 208.594C205.238 208.594 204.351 208.908 203.64 209.485C203.244 209.806 202.93 210.216 202.724 210.682C202.518 211.149 202.425 211.657 202.454 212.166V249.397C202.427 249.905 202.52 250.414 202.726 250.88C202.932 251.346 203.246 251.756 203.64 252.078C204.352 252.651 205.239 252.963 206.152 252.963C207.066 252.963 207.952 252.651 208.664 252.078C209.06 251.757 209.374 251.346 209.581 250.88C209.788 250.414 209.883 249.906 209.857 249.397V229.108H213.181C213.658 229.137 214.134 229.055 214.574 228.869C215.014 228.684 215.405 228.399 215.717 228.038C216.217 227.452 216.494 226.709 216.499 225.939Z" fill="#5F328E"/>
<path d="M247.589 247.529H229.542C229.364 247.543 229.186 247.521 229.017 247.463C228.849 247.405 228.694 247.313 228.562 247.193C228.268 246.8 228.136 246.309 228.192 245.821V240.286C228.217 239.762 228.116 239.24 227.899 238.763C227.682 238.286 227.355 237.868 226.944 237.543C226.221 236.962 225.322 236.643 224.395 236.637C223.438 236.623 222.508 236.949 221.769 237.556C221.376 237.892 221.065 238.314 220.862 238.79C220.658 239.266 220.568 239.783 220.597 240.3V245.993C220.597 248.496 221.317 250.451 222.749 251.809C224.299 253.216 226.341 253.955 228.432 253.867H247.589C248.066 253.896 248.544 253.813 248.984 253.627C249.424 253.44 249.815 253.153 250.125 252.79C250.626 252.207 250.901 251.463 250.901 250.694C250.901 249.926 250.626 249.182 250.125 248.599C249.813 248.238 249.422 247.953 248.982 247.768C248.542 247.582 248.066 247.5 247.589 247.529Z" fill="#5F328E"/>
<path d="M251.565 227.736H246.89C247.391 227.057 247.819 226.325 248.165 225.555C248.811 224.096 249.138 222.515 249.125 220.919C249.131 219.23 248.766 217.56 248.056 216.028C247.347 214.523 246.353 213.169 245.129 212.043C243.83 210.873 242.32 209.96 240.681 209.355C238.902 208.698 237.018 208.37 235.122 208.387C233.232 208.369 231.355 208.696 229.584 209.355C227.955 209.963 226.458 210.876 225.169 212.043C223.941 213.168 222.95 214.528 222.256 216.042C221.58 217.564 221.237 219.212 221.249 220.878C221.235 222.478 221.569 224.063 222.229 225.521C222.579 226.29 223.011 227.019 223.518 227.695H218.836C218.399 227.656 217.96 227.71 217.545 227.854C217.131 227.998 216.753 228.229 216.434 228.53C216.116 228.832 215.866 229.198 215.699 229.604C215.533 230.01 215.455 230.446 215.471 230.885C215.462 231.67 215.746 232.43 216.266 233.018C216.594 233.365 216.994 233.635 217.438 233.809C217.883 233.984 218.36 234.058 218.836 234.026H232.51V241.571C232.477 242.089 232.567 242.608 232.773 243.085C232.979 243.562 233.296 243.984 233.696 244.314C234.421 244.885 235.317 245.195 236.239 245.195C237.161 245.195 238.057 244.885 238.782 244.314C239.192 243.99 239.518 243.571 239.732 243.093C239.946 242.616 240.041 242.093 240.009 241.571V234.026H251.593C252.068 234.055 252.545 233.982 252.989 233.81C253.434 233.638 253.837 233.373 254.17 233.032C254.714 232.45 255.013 231.681 255.006 230.885C255.018 230.073 254.719 229.287 254.17 228.69C253.83 228.352 253.421 228.092 252.972 227.928C252.522 227.763 252.042 227.698 251.565 227.736ZM241.722 221.248C241.728 222.123 241.56 222.99 241.229 223.799C240.915 224.571 240.449 225.271 239.858 225.857C239.25 226.441 238.539 226.906 237.761 227.229C236.089 227.901 234.223 227.901 232.551 227.229C231.787 226.903 231.09 226.438 230.495 225.857C229.903 225.272 229.436 224.572 229.124 223.799C228.799 222.988 228.633 222.122 228.638 221.248C228.629 220.369 228.794 219.497 229.124 218.683C229.435 217.928 229.902 217.247 230.495 216.687C231.086 216.102 231.784 215.636 232.551 215.315C234.237 214.666 236.103 214.666 237.788 215.315C238.555 215.637 239.253 216.102 239.844 216.687C240.436 217.249 240.903 217.929 241.215 218.683C241.552 219.486 241.724 220.349 241.722 221.22V221.248Z" fill="#5F328E"/>
<path d="M305.234 232.132C303.495 230.958 301.866 229.629 300.367 228.161C298.961 226.777 297.752 225.205 296.775 223.49C295.776 221.691 295.027 219.764 294.548 217.763C294.002 215.441 293.74 213.062 293.766 210.678V209.525H300.799C301.317 209.571 301.838 209.508 302.331 209.341C302.823 209.174 303.275 208.906 303.658 208.554C304.041 208.203 304.347 207.775 304.555 207.298C304.764 206.822 304.871 206.307 304.87 205.787C304.875 204.839 304.542 203.92 303.931 203.195C303.547 202.759 303.068 202.417 302.531 202.196C301.994 201.974 301.413 201.88 300.833 201.919H277.364C276.794 201.884 276.224 201.981 275.697 202.202C275.171 202.424 274.702 202.763 274.328 203.195C273.717 203.92 273.384 204.839 273.389 205.787C273.389 206.714 273.728 207.609 274.342 208.304C274.72 208.725 275.188 209.054 275.712 209.268C276.235 209.482 276.8 209.575 277.364 209.539H284.582V209.717C284.582 214.958 283.608 219.484 281.682 223.161C279.715 226.866 276.846 230.016 273.341 232.317C272.794 232.649 272.34 233.113 272.022 233.667C271.703 234.221 271.529 234.847 271.518 235.486C271.538 236.555 271.962 237.577 272.703 238.346C273.093 238.782 273.57 239.13 274.105 239.366C274.639 239.603 275.217 239.723 275.801 239.718C276.762 239.69 277.69 239.367 278.461 238.792C281.003 236.995 283.271 234.837 285.192 232.386C286.667 230.495 287.977 228.48 289.106 226.364C290.271 228.446 291.618 230.422 293.129 232.269C295.135 234.703 297.472 236.844 300.072 238.628C300.839 239.225 301.78 239.555 302.752 239.567C303.336 239.572 303.915 239.452 304.449 239.215C304.983 238.979 305.461 238.631 305.85 238.195C306.613 237.415 307.047 236.372 307.064 235.28C307.048 234.644 306.873 234.022 306.553 233.471C306.233 232.921 305.779 232.46 305.234 232.132Z" fill="#5F328E"/>
<path d="M317.44 199.266C316.582 198.564 315.508 198.18 314.4 198.18C313.292 198.18 312.217 198.564 311.36 199.266C310.883 199.657 310.505 200.155 310.257 200.721C310.009 201.286 309.899 201.901 309.934 202.517V250.296C309.899 250.911 310.01 251.526 310.258 252.09C310.506 252.654 310.883 253.151 311.36 253.541C312.217 254.243 313.292 254.627 314.4 254.627C315.508 254.627 316.582 254.243 317.44 253.541C317.918 253.152 318.298 252.656 318.547 252.092C318.796 251.527 318.908 250.912 318.872 250.296V202.517C318.908 201.901 318.796 201.284 318.547 200.719C318.298 200.154 317.919 199.656 317.44 199.266Z" fill="#5F328E"/>
<path d="M358.833 208.594C357.919 208.593 357.033 208.908 356.325 209.485C355.928 209.806 355.613 210.216 355.406 210.683C355.198 211.149 355.104 211.658 355.132 212.167V213.333H347.805C346.712 212.011 345.334 210.953 343.775 210.24C340.42 208.743 336.615 208.61 333.164 209.87C331.69 210.411 330.338 211.241 329.189 212.311C328.061 213.377 327.156 214.657 326.529 216.077C325.873 217.626 325.535 219.291 325.535 220.974C325.535 222.657 325.873 224.322 326.529 225.871C327.158 227.284 328.065 228.555 329.196 229.609C330.349 230.664 331.697 231.484 333.164 232.024C334.711 232.594 336.348 232.882 337.996 232.874C339.996 232.893 341.976 232.471 343.795 231.64C345.383 230.919 346.789 229.85 347.908 228.512H355.146V231.393C355.119 231.902 355.213 232.411 355.42 232.877C355.627 233.343 355.942 233.754 356.338 234.075C357.051 234.647 357.937 234.96 358.85 234.96C359.764 234.96 360.65 234.647 361.362 234.075C361.758 233.753 362.071 233.342 362.277 232.876C362.483 232.41 362.576 231.902 362.548 231.393V212.167C362.576 211.657 362.482 211.148 362.276 210.681C362.07 210.214 361.757 209.802 361.362 209.479C360.645 208.903 359.753 208.591 358.833 208.594ZM350.43 219.726V219.575H355.153V222.318H350.464C350.468 222.291 350.468 222.263 350.464 222.236C350.464 221.845 350.519 221.447 350.519 221.05C350.515 220.607 350.485 220.165 350.43 219.726ZM343.254 221.036C343.268 221.857 343.119 222.673 342.815 223.436C342.546 224.099 342.148 224.7 341.643 225.206C341.169 225.676 340.605 226.045 339.984 226.29C338.713 226.791 337.3 226.791 336.029 226.29C335.407 226.045 334.84 225.676 334.364 225.206C333.862 224.698 333.463 224.097 333.192 223.436C332.89 222.673 332.741 221.857 332.753 221.036C332.737 220.199 332.886 219.367 333.192 218.587C333.461 217.925 333.86 217.324 334.364 216.818C334.84 216.346 335.406 215.975 336.029 215.727C336.658 215.479 337.328 215.353 338.003 215.357C338.681 215.354 339.353 215.479 339.984 215.727C340.604 215.977 341.167 216.348 341.643 216.818C342.149 217.322 342.548 217.924 342.815 218.587C343.124 219.366 343.273 220.198 343.254 221.036Z" fill="#5F328E"/>
<path d="M354.357 235.581H335.714C335.23 235.549 334.745 235.628 334.297 235.814C333.849 236 333.449 236.286 333.13 236.651C332.625 237.233 332.348 237.977 332.348 238.747C332.348 239.517 332.625 240.261 333.13 240.842C333.449 241.207 333.849 241.494 334.297 241.679C334.745 241.865 335.23 241.945 335.714 241.912H353.809C353.983 241.905 354.156 241.936 354.317 242.002C354.478 242.068 354.623 242.169 354.741 242.296C355.06 242.71 355.21 243.23 355.159 243.75V250.959C355.132 251.468 355.226 251.977 355.434 252.443C355.641 252.909 355.956 253.32 356.352 253.641C357.064 254.214 357.95 254.526 358.864 254.526C359.778 254.526 360.664 254.214 361.376 253.641C361.771 253.32 362.084 252.911 362.291 252.446C362.497 251.981 362.59 251.474 362.562 250.966V243.586C362.562 241.075 361.774 239.093 360.218 237.687C358.605 236.262 356.508 235.508 354.357 235.581Z" fill="#5F328E"/>
<path d="M409.506 230.02C409.504 229.25 409.227 228.505 408.725 227.921C408.413 227.56 408.022 227.275 407.582 227.09C407.142 226.904 406.665 226.823 406.189 226.851H402.762C402.33 226.851 402.131 226.851 402.131 226.2V212.214C402.159 211.704 402.066 211.195 401.86 210.728C401.654 210.261 401.34 209.849 400.945 209.526C400.233 208.953 399.347 208.641 398.433 208.641C397.519 208.641 396.633 208.953 395.921 209.526C395.526 209.849 395.213 210.261 395.006 210.728C394.8 211.195 394.708 211.704 394.735 212.214V226.296C394.735 228.504 395.311 230.212 396.456 231.378C397.6 232.544 399.458 233.223 401.905 233.223H406.189C406.665 233.252 407.142 233.17 407.582 232.985C408.022 232.799 408.413 232.515 408.725 232.153C409.235 231.56 409.512 230.802 409.506 230.02Z" fill="#5F328E"/>
<path d="M398.868 235.281C397.611 234.223 396.171 233.404 394.619 232.866C393.589 232.503 392.523 232.252 391.438 232.119C391.747 231.924 392.02 231.678 392.247 231.392C392.717 230.875 393.004 230.218 393.066 229.522C393.128 228.826 392.961 228.129 392.59 227.537C392.234 226.993 391.737 226.556 391.151 226.275C388.669 225.054 386.887 223.737 385.845 222.359C385.093 221.394 384.531 220.295 384.187 219.121H388.889C389.369 219.154 389.85 219.078 390.296 218.899C390.742 218.72 391.142 218.442 391.466 218.085C391.969 217.518 392.25 216.787 392.254 216.028C392.257 215.245 391.982 214.487 391.48 213.888C391.158 213.523 390.757 213.237 390.308 213.052C389.859 212.866 389.374 212.786 388.889 212.818H383.878V210.815C383.904 210.295 383.808 209.777 383.598 209.301C383.389 208.825 383.072 208.404 382.672 208.072C381.942 207.472 381.025 207.147 380.081 207.152C379.133 207.149 378.213 207.474 377.476 208.072C377.073 208.401 376.752 208.822 376.54 209.298C376.328 209.775 376.231 210.294 376.256 210.815V212.818H371.109C370.631 212.79 370.154 212.871 369.713 213.057C369.272 213.242 368.88 213.527 368.566 213.888C368.063 214.487 367.789 215.245 367.791 216.028C367.789 216.455 367.876 216.878 368.044 217.271C368.213 217.664 368.461 218.018 368.772 218.31C369.083 218.603 369.451 218.829 369.853 218.973C370.255 219.117 370.683 219.177 371.109 219.149H375.811C375.363 220.489 374.696 221.745 373.837 222.866C372.387 224.678 370.566 226.158 368.497 227.208C367.898 227.465 367.394 227.904 367.058 228.463C366.796 228.92 366.634 229.427 366.585 229.951C366.548 230.824 366.859 231.675 367.449 232.318C367.755 232.677 368.133 232.969 368.557 233.176C368.982 233.382 369.444 233.499 369.916 233.518C370.636 233.546 371.348 233.37 371.972 233.01C373.762 232.035 375.437 230.864 376.969 229.519C378.121 228.514 379.164 227.39 380.081 226.165C380.937 227.226 381.905 228.192 382.967 229.046C384.431 230.213 386.003 231.237 387.662 232.105C386.425 232.217 385.207 232.482 384.036 232.894C382.486 233.425 381.05 234.247 379.807 235.315C378.645 236.332 377.711 237.582 377.065 238.985C376.406 240.421 376.065 241.983 376.065 243.563C376.065 245.143 376.406 246.705 377.065 248.141C377.721 249.543 378.67 250.787 379.848 251.79C381.098 252.838 382.529 253.649 384.07 254.184C387.507 255.345 391.23 255.345 394.667 254.184C396.21 253.644 397.647 252.836 398.91 251.797C400.712 250.26 401.962 248.175 402.469 245.86C402.977 243.546 402.714 241.129 401.72 238.978C401.047 237.554 400.075 236.293 398.868 235.281ZM389.369 238.333C390.182 238.326 390.99 238.456 391.761 238.717C392.448 238.954 393.084 239.317 393.639 239.787C394.161 240.236 394.58 240.793 394.866 241.419C395.162 242.088 395.315 242.811 395.315 243.542C395.315 244.274 395.162 244.997 394.866 245.665C394.577 246.275 394.161 246.815 393.646 247.25C393.083 247.71 392.442 248.065 391.754 248.299C390.197 248.822 388.512 248.822 386.956 248.299C386.268 248.065 385.627 247.71 385.064 247.25C384.549 246.815 384.132 246.275 383.844 245.665C383.548 244.997 383.395 244.274 383.395 243.542C383.395 242.811 383.548 242.088 383.844 241.419C384.127 240.791 384.546 240.234 385.071 239.787C385.625 239.317 386.262 238.954 386.949 238.717C387.727 238.446 388.545 238.309 389.369 238.312V238.333Z" fill="#5F328E"/>
<path d="M416.437 217.683H434.196C434.372 217.674 434.548 217.701 434.713 217.763C434.878 217.824 435.028 217.918 435.156 218.039C435.455 218.43 435.595 218.921 435.547 219.411C435.561 221.988 435.412 224.563 435.101 227.121C434.786 229.59 434.354 232.025 433.813 234.37C433.644 234.917 433.629 235.499 433.77 236.053C433.91 236.607 434.2 237.112 434.608 237.512C435.345 238.217 436.329 238.606 437.349 238.595C438.112 238.592 438.858 238.374 439.502 237.964C439.863 237.742 440.176 237.448 440.423 237.102C440.669 236.755 440.843 236.363 440.934 235.948C441.595 233.337 442.098 230.69 442.442 228.019C442.808 225.121 442.986 222.202 442.977 219.281C442.992 218.147 442.783 217.02 442.36 215.968C441.965 215.006 441.377 214.135 440.632 213.41C439.882 212.694 438.99 212.142 438.014 211.791C436.982 211.424 435.894 211.241 434.8 211.249H416.437C416.002 211.213 415.563 211.268 415.15 211.409C414.737 211.551 414.357 211.777 414.035 212.073C413.713 212.368 413.456 212.728 413.279 213.128C413.103 213.528 413.011 213.96 413.01 214.397C413.003 215.199 413.277 215.978 413.784 216.599C414.113 216.973 414.523 217.265 414.983 217.453C415.444 217.641 415.941 217.72 416.437 217.683Z" fill="#5F328E"/>
<path d="M447.232 241.126C446.914 240.757 446.514 240.467 446.065 240.279C445.615 240.091 445.128 240.01 444.642 240.042H428.466V228.718C428.494 228.204 428.397 227.691 428.184 227.222C427.97 226.754 427.646 226.344 427.239 226.029C426.507 225.451 425.601 225.139 424.668 225.145C423.752 225.144 422.864 225.459 422.153 226.036C421.758 226.358 421.444 226.769 421.238 227.235C421.032 227.701 420.939 228.209 420.967 228.718V240.042H411.796C411.318 240.014 410.84 240.096 410.399 240.283C409.958 240.47 409.566 240.756 409.253 241.119C408.755 241.71 408.481 242.458 408.479 243.231C408.475 244.018 408.749 244.781 409.253 245.385C409.565 245.749 409.957 246.036 410.398 246.224C410.839 246.412 411.317 246.496 411.796 246.469H444.696C445.182 246.501 445.667 246.42 446.116 246.232C446.564 246.043 446.963 245.754 447.28 245.385C447.785 244.781 448.059 244.018 448.055 243.231C448.038 242.454 447.746 241.709 447.232 241.126Z" fill="#5F328E"/>
<path d="M82.7715 88.2553V108.832H103.334V88.2553H82.7715Z" fill="#5F328E"/>
<path d="M82.7715 113.974V134.551H103.334V113.974H82.7715Z" fill="#5F328E"/>
<path d="M57.0684 113.974V134.551H77.6311V113.974H57.0684Z" fill="#5F328E"/>
<path d="M57.0684 88.2553V108.832H77.6311V88.2553H57.0684Z" fill="#5F328E"/>
<path d="M82.7715 62.5327V83.1094H103.334V62.5327H82.7715Z" fill="#5F328E"/>
<path d="M31.3652 113.974V134.551H51.928V113.974H31.3652Z" fill="#5F328E"/>
<path d="M137.173 56.4843C137.111 56.0865 137.063 55.6749 137.008 55.2703L136.94 54.5501C134.452 53.8642 132.183 53.1783 131.326 52.9176C129.439 52.2088 127.44 51.8463 125.425 51.8477C124.735 51.8687 124.048 51.9398 123.369 52.0603L123.554 52.1632C123.703 52.2596 123.839 52.3748 123.958 52.5061C124.033 53.2606 124.102 54.0288 124.177 54.7833C125.178 65.0716 126.117 75.5589 127.029 85.7032L127.714 93.4949C127.145 106.438 125.836 120.169 120.236 133.057C112.984 149.765 102.998 160.376 89.7005 165.5C66.6017 174.416 45.9841 172.269 28.4099 159.189C19.1087 152.262 14.016 142.09 13.2826 128.955C12.4258 113.687 17.3951 100.443 28.5058 88.4879L28.78 88.193C34.5239 82.0199 40.4322 75.6069 45.6003 68.6931C47.8416 65.6821 49.3085 62.2869 50.7204 59.0015C51.4607 57.2868 52.1598 55.6681 52.9549 54.1248C53.1308 53.7906 53.3626 53.489 53.6403 53.2332L49.2468 53.1989C44.0992 53.1577 41.9127 53.0685 39.2944 52.6913C38.7598 53.6378 38.232 54.5844 37.7248 55.5103C35.8095 59.1628 33.6406 62.6763 31.2338 66.025C28.804 69.0828 26.1852 71.9852 23.3926 74.7152C21.8915 76.2447 20.3424 77.8292 18.8619 79.4479C4.07047 95.6349 -2.05722 114.209 0.650207 134.648C2.39804 147.9 8.18987 159.038 17.8749 167.756C29.2324 177.983 43.5715 183.442 60.4877 183.984C61.5775 184.019 62.6468 184.039 63.7161 184.039C88.6107 184.039 108.344 174.567 122.402 155.856C133.245 141.452 139.072 124.195 140.223 103.18C140.943 89.1326 139.99 74.3037 137.173 56.4843Z" fill="#5F328E"/>
<path d="M146.537 39.1157C142.767 36.091 139.066 33.1279 135.193 30.2403C134.309 29.5544 134.275 29.3281 134.295 28.6285C134.432 23.5598 134.378 18.443 134.295 13.4909V12.9148C134.24 8.43589 131.615 5.83637 127.098 5.77464C125.693 5.77464 124.288 5.77464 122.883 5.77464C120.642 5.77464 118.524 5.77464 116.399 5.71291C115.547 5.62724 114.686 5.7189 113.871 5.98212C113.056 6.24534 112.304 6.67444 111.663 7.24244C111.093 7.80864 110.642 8.48192 110.333 9.22351C110.025 9.96511 109.867 10.7604 109.867 11.5635L106.385 8.86114L101.128 4.82125C92.9025 -1.53008 89.5097 -1.57124 80.9419 4.58119C67.2745 14.3894 53.3193 24.2868 39.8164 33.8618L35.2927 37.0718C33.9218 38.0526 29.6859 41.0499 31.7216 45.7757C32.7642 48.0771 34.4253 50.0433 36.5196 51.4549L36.595 51.5098C37.4224 52.0368 38.3265 52.4325 39.275 52.6826C41.8933 53.0599 44.0729 53.149 49.2273 53.1902L53.6209 53.2245L53.6552 53.1902C54.6833 52.8975 55.6909 52.5752 56.6779 52.2231C63.5321 49.7745 69.3719 45.9746 74.2933 42.4766C76.4729 40.9265 78.6457 39.3284 80.7568 37.7782C82.5252 36.4751 84.2982 35.181 86.0757 33.8961C90.1883 30.9125 90.2979 30.9125 94.4653 33.7864C96.5216 35.213 98.6121 36.7426 100.634 38.2172C103.712 40.4738 106.885 42.799 110.196 44.9184C112.869 46.6262 115.679 48.0597 118.421 49.4452C120.08 50.2889 122.376 51.6058 123.993 52.5112C125.033 53.0108 126.15 53.3286 127.297 53.4508C128.49 53.7046 130.135 53.9104 131.656 54.1367C133.41 54.4077 135.181 54.543 136.955 54.5414C136.955 54.5002 136.955 54.4659 136.955 54.4248C138.476 54.4248 139.943 54.4248 141.424 54.3836C145.646 54.2602 148.792 51.9556 150.06 48.0529C151.575 43.2311 147.908 40.2543 146.537 39.1157Z" fill="#190635"/>
</svg>
